<svg width="31" height="35" viewBox="0 0 31 35" fill="none" xmlns="http://www.w3.org/2000/svg">
<g filter="url(#filter0_i_528_1694)">
<path d="M15.0639 23.1784L15.082 23.1794L15.1002 23.1786C20.2014 22.9535 23.4149 22.3218 25.3582 20.9761C27.3528 19.5949 27.9435 17.5168 27.9827 14.667C28.0639 8.75917 22.3577 4.69133 15.4737 4.5967C8.59015 4.50207 2.76104 8.41093 2.67982 14.3192C2.64037 17.1888 3.32723 19.3269 5.31069 20.7827C7.25366 22.2088 10.3787 22.928 15.0639 23.1784Z" fill="#7E6746" stroke="#7E6746" stroke-width="0.744782"/>
<path d="M7.45943 29.6893L7.12577 29.5239L7.09667 29.5826L7.08936 29.6477L7.45943 29.6893ZM7.45943 29.6893C7.12577 29.5239 7.12587 29.5237 7.12597 29.5235L7.12619 29.5231L7.12666 29.5221L7.12774 29.52L7.13049 29.5146L7.13838 29.4998C7.14472 29.4883 7.15325 29.4732 7.16411 29.4553C7.1858 29.4195 7.21695 29.3719 7.25866 29.3166C7.34193 29.2064 7.46859 29.0643 7.64767 28.9265C8.01194 28.6462 8.57474 28.3986 9.3817 28.4487C10.3313 28.5076 10.9108 28.7397 11.2636 28.995C11.4398 29.1226 11.5544 29.2525 11.6276 29.3609C11.664 29.4148 11.6895 29.4625 11.7071 29.5009C11.716 29.52 11.7228 29.5368 11.728 29.5507C11.7306 29.5577 11.7328 29.564 11.7346 29.5695L11.7371 29.5773L11.7382 29.5807L11.7387 29.5823L11.7389 29.5831C11.739 29.5835 11.7391 29.5839 11.3819 29.6893M7.45943 29.6893L7.08936 29.6478L7.08935 29.6478L7.08932 29.6481L7.08923 29.6489L7.0889 29.6519L7.08763 29.6634L7.0829 29.7069C7.07884 29.7447 7.07306 29.7994 7.06612 29.8676C7.05226 30.004 7.03374 30.1945 7.01512 30.4115C6.97812 30.8427 6.93974 31.389 6.93808 31.8229C6.93805 31.8319 6.93801 31.8409 6.93798 31.8499C6.93633 32.2675 6.9347 32.6835 7.04161 33.0555C7.15931 33.4649 7.40067 33.805 7.83628 34.0954C7.94274 34.1664 8.06981 34.2101 8.18342 34.2399C8.3026 34.2711 8.43573 34.2941 8.57184 34.3116C8.84421 34.3466 9.15533 34.3625 9.44355 34.3689C9.73332 34.3752 10.0077 34.3721 10.2092 34.3673C10.3101 34.3649 10.3931 34.3622 10.4512 34.36L10.5187 34.3572L10.5368 34.3564L10.5417 34.3562L10.543 34.3561L10.5434 34.3561L10.5435 34.3561L10.5255 33.9842M11.3819 29.6893L11.7505 29.6361L11.7505 29.6362L11.7506 29.6364L11.7507 29.637L11.751 29.6393L11.7522 29.6479L11.7568 29.6806C11.7608 29.709 11.7665 29.75 11.7734 29.8012C11.7873 29.9035 11.8061 30.0464 11.8259 30.2093C11.8654 30.5326 11.9102 30.9434 11.9276 31.2707C11.9442 31.5828 11.9536 31.9763 11.9589 32.2888C11.9615 32.4457 11.9631 32.5834 11.9641 32.6819L11.9648 32.7577C11.9811 32.7946 12.0008 32.8422 12.0202 32.8963C12.0605 33.0093 12.1197 33.2057 12.1 33.4009C12.0721 33.6775 11.8961 33.8644 11.7356 33.9786C11.5743 34.0934 11.383 34.1693 11.2187 34.2203C11.0504 34.2726 10.8874 34.3058 10.7685 34.3259C10.7085 34.3361 10.6582 34.3432 10.6224 34.3477C10.6044 34.35 10.59 34.3517 10.5797 34.3529L10.5673 34.3542L10.5635 34.3546L10.5622 34.3547L10.5617 34.3548L10.5616 34.3548C10.5615 34.3548 10.5614 34.3548 10.5255 33.9842M11.3819 29.6893L11.7505 29.6361L11.7467 29.6096L11.7391 29.5839L11.3819 29.6893ZM10.5255 33.9842L10.5436 34.3561L10.5525 34.3557L10.5614 34.3548L10.5255 33.9842Z" fill="#7E6746" stroke="#7E6746" stroke-width="0.744782"/>
<path d="M22.7295 29.6893L23.0632 29.5239L23.0923 29.5826L23.0996 29.6477L22.7295 29.6893ZM22.7295 29.6893C23.0632 29.5239 23.0631 29.5237 23.063 29.5235L23.0628 29.5231L23.0623 29.5221L23.0612 29.52L23.0585 29.5146L23.0506 29.4998C23.0442 29.4883 23.0357 29.4732 23.0249 29.4553C23.0032 29.4195 22.972 29.3719 22.9303 29.3166C22.847 29.2064 22.7204 29.0643 22.5413 28.9265C22.177 28.6462 21.6142 28.3986 20.8073 28.4487C19.8577 28.5076 19.2782 28.7397 18.9254 28.995C18.7492 29.1226 18.6345 29.2525 18.5613 29.3609C18.525 29.4148 18.4995 29.4625 18.4818 29.5009C18.473 29.52 18.4662 29.5368 18.461 29.5507C18.4584 29.5577 18.4562 29.564 18.4544 29.5695L18.4519 29.5773L18.4508 29.5807L18.4503 29.5823L18.4501 29.5831C18.45 29.5835 18.4498 29.5839 18.807 29.6893M22.7295 29.6893L23.0996 29.6478L23.0996 29.6478L23.0996 29.6481L23.0997 29.6489L23.1001 29.6519L23.1013 29.6634L23.1061 29.7069C23.1101 29.7447 23.1159 29.7994 23.1228 29.8676C23.1367 30.004 23.1552 30.1945 23.1738 30.4115C23.2108 30.8427 23.2492 31.389 23.2509 31.8229C23.2509 31.8319 23.251 31.8409 23.251 31.8499C23.2526 32.2675 23.2543 32.6835 23.1474 33.0555C23.0297 33.4649 22.7883 33.805 22.3527 34.0954C22.2462 34.1664 22.1192 34.2101 22.0055 34.2399C21.8864 34.2711 21.7532 34.2941 21.6171 34.3116C21.3448 34.3466 21.0336 34.3625 20.7454 34.3689C20.4556 34.3752 20.1812 34.3721 19.9798 34.3673C19.8789 34.3649 19.7959 34.3622 19.7378 34.36L19.6703 34.3572L19.6522 34.3564L19.6473 34.3562L19.646 34.3561L19.6456 34.3561L19.6454 34.3561L19.6635 33.9842M18.807 29.6893L18.4384 29.6361L18.4384 29.6362L18.4384 29.6364L18.4383 29.637L18.438 29.6393L18.4368 29.6479L18.4321 29.6806C18.4282 29.709 18.4225 29.75 18.4155 29.8012C18.4017 29.9035 18.3829 30.0464 18.363 30.2093C18.3236 30.5326 18.2788 30.9434 18.2614 31.2707C18.2447 31.5828 18.2353 31.9763 18.2301 32.2888C18.2274 32.4457 18.2258 32.5834 18.2249 32.6819L18.2242 32.7577C18.2079 32.7946 18.1881 32.8422 18.1688 32.8963C18.1285 33.0093 18.0692 33.2057 18.0889 33.4009C18.1169 33.6775 18.2928 33.8644 18.4533 33.9786C18.6147 34.0934 18.806 34.1693 18.9702 34.2203C19.1385 34.2726 19.3016 34.3058 19.4205 34.3259C19.4805 34.3361 19.5307 34.3432 19.5666 34.3477C19.5845 34.35 19.599 34.3517 19.6093 34.3529L19.6217 34.3542L19.6255 34.3546L19.6267 34.3547L19.6272 34.3548L19.6274 34.3548C19.6275 34.3548 19.6276 34.3548 19.6635 33.9842M18.807 29.6893L18.4384 29.6361L18.4423 29.6096L18.4498 29.5839L18.807 29.6893ZM19.6635 33.9842L19.6454 34.3561L19.6365 34.3557L19.6276 34.3548L19.6635 33.9842Z" fill="#7E6746" stroke="#7E6746" stroke-width="0.744782"/>
<path d="M8.10163 21.1078L7.88238 20.8068L7.86982 20.816L7.85807 20.8261L8.10163 21.1078ZM8.10163 21.1078C7.88238 20.8068 7.88244 20.8068 7.88251 20.8067L7.88265 20.8066L7.88301 20.8064L7.88397 20.8057L7.88685 20.8036L7.89633 20.7968C7.90427 20.7912 7.91542 20.7834 7.92951 20.7737C7.95766 20.7544 7.99768 20.7276 8.0473 20.696C8.14608 20.6332 8.28531 20.5501 8.44647 20.4697C8.74568 20.3205 9.20865 20.1346 9.63729 20.204C10.0483 20.2705 10.3948 20.4376 10.6694 20.6995C10.9414 20.9589 11.125 21.294 11.2421 21.6713C11.3553 22.036 11.3409 22.3483 11.2304 22.646C11.1333 22.9077 10.9634 23.148 10.8026 23.3753C10.796 23.3846 10.7894 23.3939 10.7828 23.4032C10.5672 23.7083 10.2798 24.0141 9.97367 24.326C9.89089 24.4104 9.80656 24.4954 9.72095 24.5816C9.48325 24.8212 9.23564 25.0707 8.98366 25.3445C8.59296 25.7691 8.14294 26.3702 7.78523 26.8743C7.60768 27.1245 7.45521 27.3475 7.34719 27.5079C7.29521 27.585 7.25358 27.6476 7.22448 27.6916C7.21635 27.7501 7.20276 27.8311 7.18061 27.9226C7.1389 28.0949 7.05636 28.3503 6.88617 28.5519C6.57326 28.9225 6.11904 29.1406 5.67068 29.2071C5.22502 29.2733 4.73538 29.1961 4.36487 28.9079C4.05586 28.6676 3.80834 28.4371 3.67987 28.1243C3.55103 27.8106 3.5659 27.473 3.6203 27.0836C3.83251 25.5644 4.92505 23.9871 5.90852 22.8265C6.40766 22.2374 6.89355 21.7388 7.25452 21.3874C7.43518 21.2116 7.58501 21.0722 7.69014 20.9763C7.74271 20.9284 7.78414 20.8913 7.8127 20.866L7.84568 20.8369L7.85453 20.8292L7.85698 20.8271L7.85769 20.8265L7.85793 20.8262C7.85801 20.8262 7.85807 20.8261 8.10163 21.1078Z" fill="#7E6746" stroke="#7E6746" stroke-width="0.744782"/>
<path d="M22.2397 21.1078L22.4589 20.8068L22.4715 20.816L22.4832 20.8261L22.2397 21.1078ZM22.2397 21.1078C22.4589 20.8068 22.4589 20.8068 22.4588 20.8067L22.4587 20.8066L22.4583 20.8064L22.4573 20.8057L22.4545 20.8036L22.445 20.7968C22.437 20.7912 22.4259 20.7834 22.4118 20.7737C22.3837 20.7544 22.3436 20.7276 22.294 20.696C22.1952 20.6332 22.056 20.5501 21.8948 20.4697C21.5956 20.3205 21.1327 20.1346 20.704 20.204C20.293 20.2705 19.9465 20.4376 19.6719 20.6995C19.3999 20.9589 19.2163 21.294 19.0992 21.6713C18.986 22.036 19.0004 22.3483 19.1109 22.646C19.208 22.9077 19.3779 23.148 19.5387 23.3753C19.5453 23.3846 19.5519 23.3939 19.5585 23.4032C19.7741 23.7083 20.0615 24.0141 20.3676 24.326C20.4504 24.4104 20.5347 24.4954 20.6204 24.5816C20.8581 24.8212 21.1057 25.0707 21.3576 25.3445C21.7484 25.7691 22.1984 26.3702 22.5561 26.8743C22.7336 27.1245 22.8861 27.3475 22.9941 27.5079C23.0461 27.585 23.0877 27.6476 23.1168 27.6916C23.125 27.7501 23.1386 27.8311 23.1607 27.9226C23.2024 28.0949 23.2849 28.3503 23.4551 28.5519C23.7681 28.9225 24.2223 29.1406 24.6706 29.2071C25.1163 29.2733 25.6059 29.1961 25.9764 28.9079C26.2854 28.6676 26.533 28.4371 26.6614 28.1243C26.7903 27.8106 26.7754 27.473 26.721 27.0836C26.5088 25.5644 25.4163 23.9871 24.4328 22.8265C23.9336 22.2374 23.4478 21.7388 23.0868 21.3874C22.9061 21.2116 22.7563 21.0722 22.6512 20.9763C22.5986 20.9284 22.5572 20.8913 22.5286 20.866L22.4956 20.8369L22.4868 20.8292L22.4843 20.8271L22.4836 20.8265L22.4834 20.8262C22.4833 20.8262 22.4832 20.8261 22.2397 21.1078Z" fill="#7E6746" stroke="#7E6746" stroke-width="0.744782"/>
<path d="M4.22886 3.1903C4.30386 2.86462 4.62498 2.66292 4.95091 2.73685C5.8208 2.93416 7.47143 3.3299 8.56329 3.72392C9.25496 3.97353 10.0869 4.33371 10.7176 4.61781C11.1507 4.81295 11.2003 5.40078 10.8108 5.67291L4.43654 10.1268C4.02524 10.4142 3.46379 10.1209 3.47208 9.61918C3.48768 8.67514 3.52505 7.37654 3.61453 6.52345C3.72567 5.46395 4.04377 3.99401 4.22886 3.1903Z" fill="#7E6746"/>
<path d="M4.78015 4.03655C4.8483 3.69587 5.18571 3.48504 5.52217 3.57159C6.34115 3.78225 7.80178 4.17845 8.78093 4.56106C9.40965 4.80674 10.165 5.15567 10.7458 5.43429C11.1676 5.63667 11.2095 6.21351 10.8266 6.48236L5.21477 10.4224C4.80925 10.7071 4.25298 10.4256 4.2491 9.93015C4.24219 9.04903 4.24743 7.85808 4.30884 7.07284C4.38382 6.11419 4.62746 4.79986 4.78015 4.03655Z" fill="#7E6746"/>
<path d="M26.4477 3.77802C26.3702 3.46992 26.0705 3.27611 25.7576 3.3309C24.9137 3.47862 23.2858 3.78383 22.214 4.11285C21.5714 4.3101 20.8055 4.59745 20.2038 4.83393C19.7529 5.01118 19.6844 5.61198 20.0782 5.89429L26.327 10.3739C26.7416 10.6711 27.314 10.3696 27.296 9.85983C27.2645 8.96946 27.2073 7.78994 27.1093 7.00258C26.982 5.97883 26.6414 4.54741 26.4477 3.77802Z" fill="#7E6746"/>
<path d="M25.9555 4.58653C25.9009 4.33713 25.673 4.16797 25.4187 4.19062C24.6473 4.25933 23.0341 4.43414 21.9874 4.76544C21.3638 4.96281 20.601 5.3234 20.0605 5.59691C19.7294 5.76451 19.6911 6.21335 19.9818 6.44422L25.5777 10.8898C25.8947 11.1417 26.3612 10.952 26.4021 10.5491C26.4876 9.70777 26.583 8.47872 26.5071 7.7268C26.4054 6.71898 26.1099 5.29299 25.9555 4.58653Z" fill="#7E6746"/>
<path d="M7.65775 21.5596L7.35144 21.3478L7.31053 21.407L7.2946 21.4771L7.65775 21.5596ZM7.65775 21.5596C7.35144 21.3478 7.35152 21.3477 7.3516 21.3476L7.35178 21.3473L7.35218 21.3467L7.35321 21.3452L7.35613 21.3411L7.36533 21.3283C7.37295 21.3178 7.38354 21.3035 7.39694 21.2861C7.4237 21.2514 7.46198 21.2037 7.51057 21.1485C7.60678 21.0393 7.74821 20.8953 7.92532 20.764C8.27138 20.5073 8.83298 20.2474 9.45677 20.5396C11.3956 21.4479 13.7746 21.8595 15.9499 21.8352C18.1402 21.8107 20.0458 21.3456 21.0802 20.5778C21.3592 20.3707 21.6737 20.3996 21.9146 20.4863C22.1503 20.5711 22.3696 20.727 22.5448 20.8747C22.7245 21.0262 22.8813 21.1894 22.9918 21.3125C23.0475 21.3745 23.0925 21.4277 23.124 21.4658C23.1397 21.4848 23.1521 21.5002 23.1609 21.5111L23.1712 21.5241L23.1741 21.5279L23.1751 21.5291L23.1754 21.5295L23.1755 21.5297C23.1756 21.5297 23.1757 21.5298 22.8815 21.7582M7.65775 21.5596L7.29459 21.4772L7.29456 21.4773L7.29446 21.4777L7.29412 21.4793L7.29284 21.4849L7.288 21.5066L7.26983 21.5891C7.25419 21.6608 7.23182 21.7649 7.20471 21.8955C7.1505 22.1566 7.07726 22.5239 7.00094 22.9495C6.84887 23.7973 6.68223 24.889 6.63233 25.8347L6.63185 25.8438C6.54415 27.5059 6.4585 29.1291 7.33314 30.6851C7.56058 31.0897 8.04534 31.3594 8.56314 31.5526C9.10211 31.7537 9.77014 31.9048 10.4784 32.018C11.8972 32.2446 13.5351 32.3273 14.758 32.3273H14.7759C16.3556 32.3273 18.1206 32.3273 19.6097 32.0935C20.3583 31.9759 21.0578 31.7965 21.6391 31.5165C22.2221 31.2357 22.7083 30.8428 22.9901 30.2893C23.8471 28.606 23.7715 27.4611 23.6551 25.6973C23.6526 25.6591 23.65 25.6206 23.6475 25.5818C23.5872 24.6654 23.4879 23.6969 23.4039 22.9591C23.3619 22.5898 23.3236 22.2775 23.2958 22.0574C23.2819 21.9473 23.2706 21.8603 23.2628 21.8006L23.2537 21.7322L23.2514 21.7145L23.2508 21.7099L23.2506 21.7087L23.2505 21.7084L23.2505 21.7083L22.8815 21.7582M22.8815 21.7582L23.1757 21.5298L23.2371 21.6089L23.2505 21.7082L22.8815 21.7582Z" fill="#7E6746" stroke="#7E6746" stroke-width="0.744782"/>
<path d="M27.6101 14.6619C27.5327 20.292 25.2915 22.3805 15.0832 22.8329C5.72851 22.3316 2.96508 19.928 3.04248 14.298C7.47377 18.1455 9.95957 19.4442 15.0833 19.6519C20.5124 19.872 23.8093 19.1036 27.6101 14.6619Z" fill="#7E6746"/>
</g>
<defs>
<filter id="filter0_i_528_1694" x="2.30566" y="2.72156" width="26.0503" height="35.0233" filterUnits="userSpaceOnUse" color-interpolation-filters="sRGB">
<feFlood flood-opacity="0" result="BackgroundImageFix"/>
<feBlend mode="normal" in="SourceGraphic" in2="BackgroundImageFix" result="shape"/>
<feColorMatrix in="SourceAlpha" type="matrix" values="0 0 0 0 0 0 0 0 0 0 0 0 0 0 0 0 0 0 127 0" result="hardAlpha"/>
<feOffset dy="3"/>
<feGaussianBlur stdDeviation="1.5"/>
<feComposite in2="hardAlpha" operator="arithmetic" k2="-1" k3="1"/>
<feColorMatrix type="matrix" values="0 0 0 0 0 0 0 0 0 0 0 0 0 0 0 0 0 0 0.18 0"/>
<feBlend mode="normal" in2="shape" result="effect1_innerShadow_528_1694"/>
</filter>
</defs>
</svg>
