<svg width="35" height="38" viewBox="0 0 35 38" fill="none" xmlns="http://www.w3.org/2000/svg">
<path d="M17.1873 26.7402L17.2105 26.7415L17.2338 26.7404C23.1022 26.4746 26.8117 25.7347 29.0594 24.1531C31.3695 22.5277 32.0502 20.0856 32.0969 16.7539C32.194 9.82921 25.61 5.06616 17.6722 4.95917C9.735 4.85219 3.00467 9.43525 2.90758 16.3605C2.86052 19.7169 3.64986 22.2275 5.94441 23.9376C8.1898 25.6111 11.7964 26.4501 17.1873 26.7402Z" fill="#F9FAF8" stroke="#F9FAF8" stroke-width="0.939284"/>
<path d="M8.23648 32.0238L7.84777 31.7602L7.78834 31.8479L7.77227 31.9525L8.23648 32.0238ZM8.23648 32.0238C7.84777 31.7602 7.84796 31.7599 7.84815 31.7597L7.84855 31.7591L7.8494 31.7578L7.85134 31.755L7.85612 31.7482L7.86944 31.73C7.88 31.7159 7.89399 31.6979 7.9116 31.6767C7.94682 31.6342 7.99658 31.5786 8.06249 31.5148C8.19446 31.3871 8.39082 31.2269 8.6638 31.0734C9.21384 30.7641 10.0533 30.4943 11.2645 30.5492C12.7316 30.6158 13.607 30.8762 14.133 31.1544C14.3977 31.2945 14.5746 31.4395 14.6917 31.5663C14.7501 31.6295 14.7926 31.6871 14.8232 31.7357C14.8384 31.76 14.8506 31.7818 14.8602 31.8007C14.865 31.8101 14.8692 31.8188 14.8728 31.8267L14.8778 31.838L14.88 31.8431L14.881 31.8456L14.8815 31.8468C14.8817 31.8474 14.8819 31.848 14.4464 32.0238M8.23648 32.0238L7.77226 31.9526L7.77225 31.9527L7.7722 31.953L7.77205 31.954L7.7715 31.9576L7.76946 31.9711L7.7619 32.022C7.75542 32.066 7.74622 32.1297 7.73518 32.2091C7.71312 32.3676 7.68366 32.5892 7.65402 32.8416C7.59533 33.3414 7.53369 33.9806 7.53102 34.4917C7.53095 34.5056 7.53087 34.5195 7.53079 34.5334C7.52816 35.0084 7.52534 35.5159 7.70456 35.9716C7.90462 36.4802 8.30022 36.867 8.95441 37.1857C9.09911 37.2562 9.27532 37.3014 9.44378 37.3336C9.61949 37.3673 9.81946 37.3928 10.0288 37.4124C10.4478 37.4518 10.9306 37.47 11.3831 37.4773C11.8369 37.4846 12.2674 37.4809 12.5839 37.4755C12.7424 37.4727 12.8727 37.4696 12.9636 37.4671L13.0691 37.4639L13.0971 37.463L13.1045 37.4628L13.1064 37.4627L13.107 37.4627L13.1071 37.4627L13.0905 36.9933M14.4464 32.0238L14.9072 31.9329L14.9072 31.933L14.9073 31.9332L14.9074 31.934L14.908 31.9367L14.9099 31.9469L14.9173 31.9851C14.9237 32.0182 14.9327 32.066 14.9438 32.1256C14.9658 32.2446 14.9957 32.4108 15.0274 32.6003C15.09 32.9752 15.1618 33.4562 15.19 33.8424C15.2166 34.2075 15.2315 34.6659 15.2399 35.0281C15.2441 35.2103 15.2467 35.3701 15.2482 35.4844L15.2487 35.5339C15.2719 35.5734 15.2979 35.6207 15.3236 35.6733C15.3865 35.8022 15.5 36.0642 15.4619 36.3395C15.4083 36.7278 15.0899 36.944 14.8813 37.0525C14.6462 37.1747 14.3651 37.2568 14.1171 37.3131C13.8635 37.3707 13.6162 37.4076 13.4346 37.43C13.3431 37.4413 13.2668 37.4492 13.2128 37.4542C13.1858 37.4568 13.1643 37.4586 13.1491 37.4598L13.1313 37.4612L13.1262 37.4616L13.1246 37.4617L13.124 37.4618L13.1238 37.4618C13.1238 37.4618 13.1237 37.4618 13.0905 36.9933M14.4464 32.0238L14.9072 31.9329L14.8986 31.8892L14.8819 31.848L14.4464 32.0238ZM13.0905 36.9933L13.1072 37.4627L13.1155 37.4624L13.1237 37.4618L13.0905 36.9933Z" fill="#F9FAF8" stroke="#F9FAF8" stroke-width="0.939284"/>
<path d="M25.7973 32.0238L26.2033 31.7878L26.2507 31.8692L26.2629 31.9625L25.7973 32.0238ZM25.7973 32.0238C26.2033 31.7878 26.2032 31.7875 26.203 31.7873L26.2027 31.7867L26.202 31.7855L26.2003 31.7827L26.1963 31.776L26.1849 31.7578C26.1759 31.7437 26.1639 31.7257 26.1487 31.7044C26.1184 31.6617 26.0753 31.6056 26.0181 31.5409C25.9036 31.4116 25.7317 31.2478 25.4913 31.09C25.0046 30.7707 24.2613 30.493 23.1953 30.5494C21.9229 30.6168 21.1528 30.881 20.6847 31.1699C20.4497 31.315 20.2937 31.4646 20.1917 31.5935C20.141 31.6575 20.1047 31.7152 20.0789 31.7629C20.0661 31.7867 20.056 31.8079 20.0481 31.8259C20.0442 31.835 20.0408 31.8432 20.0379 31.8506L20.0339 31.8611L20.0322 31.8658L20.0314 31.868L20.031 31.8691C20.0308 31.8697 20.0307 31.8702 20.4745 32.0238M25.7973 32.0238L26.2629 31.9626L26.263 31.9627L26.263 31.9629L26.2631 31.9639L26.2636 31.9675L26.2653 31.9809L26.2718 32.0316C26.2773 32.0755 26.2852 32.139 26.2946 32.2182C26.3135 32.3764 26.3387 32.5975 26.364 32.8493C26.4143 33.3488 26.4668 33.9849 26.4691 34.4921C26.4691 34.5048 26.4692 34.5174 26.4693 34.5301C26.4715 35.008 26.4738 35.5043 26.3236 35.9497C26.1559 36.4472 25.8176 36.8422 25.2377 37.1718C25.1013 37.2493 24.9382 37.2974 24.7892 37.3307C24.6328 37.3657 24.4566 37.3918 24.2745 37.4117C23.9101 37.4516 23.492 37.47 23.1026 37.4773C22.7114 37.4846 22.3407 37.4809 22.0684 37.4754C21.932 37.4727 21.8199 37.4695 21.7415 37.467L21.6505 37.4639L21.6262 37.4629L21.6197 37.4627L21.618 37.4626L21.6175 37.4626L21.6173 37.4626L21.6367 36.9933M20.4745 32.0238L20.0114 31.9455L20.0114 31.9456L20.0113 31.9458L20.0112 31.9466L20.0108 31.9492L20.0091 31.9593L20.0028 31.9974C19.9974 32.0304 19.9896 32.0781 19.9802 32.1375C19.9613 32.2562 19.9357 32.4221 19.9087 32.6111C19.8551 32.9857 19.7939 33.4643 19.7699 33.8473C19.7472 34.2106 19.7344 34.6677 19.7273 35.0297C19.7237 35.2116 19.7215 35.3711 19.7202 35.4853L19.7195 35.5504C19.6987 35.5915 19.6747 35.6418 19.6511 35.6981C19.5963 35.8291 19.5064 36.0765 19.5364 36.3304C19.5794 36.693 19.8428 36.9153 20.0439 37.0373C20.2562 37.1662 20.508 37.2514 20.7256 37.3091C20.9488 37.3682 21.1656 37.4059 21.3241 37.4288C21.4041 37.4403 21.4709 37.4483 21.5184 37.4535C21.5422 37.4561 21.5612 37.458 21.5747 37.4593L21.5908 37.4608L21.5955 37.4612L21.5971 37.4613L21.5976 37.4613L21.5979 37.4614C21.598 37.4614 21.598 37.4614 21.6367 36.9933M20.4745 32.0238L20.0114 31.9455L20.0179 31.9071L20.0307 31.8702L20.4745 32.0238ZM21.6367 36.9933L21.6172 37.4626L21.6076 37.4622L21.598 37.4614L21.6367 36.9933Z" fill="#F9FAF8" stroke="#F9FAF8" stroke-width="0.939284"/>
<path d="M8.9809 22.5004L8.73307 22.1046L8.71075 22.1181L8.69008 22.1339L8.9809 22.5004ZM8.9809 22.5004C8.69008 22.1339 8.68997 22.134 8.68984 22.1341L8.6895 22.1343L8.68854 22.1351L8.68542 22.1375L8.67458 22.1459L8.63509 22.1768C8.60113 22.2037 8.55223 22.2429 8.49052 22.2936C8.36715 22.395 8.19235 22.5426 7.98333 22.7303C7.56592 23.1052 7.00877 23.6427 6.45121 24.2928C5.35399 25.5723 4.1781 27.3763 4.1939 29.2782C4.19799 29.7703 4.24864 30.1795 4.46633 30.5688C4.67624 30.9442 5.01567 31.2528 5.47099 31.6101C5.96414 31.997 6.59062 32.1884 7.17585 32.1914C7.75374 32.1944 8.36641 32.011 8.75734 31.5529C8.9792 31.2929 9.04063 30.9499 9.06214 30.7448C9.07264 30.6446 9.07566 30.5541 9.07579 30.4841C9.10381 30.4384 9.13983 30.3801 9.18278 30.3114C9.29494 30.1321 9.45393 29.8831 9.64088 29.6051C10.0191 29.0426 10.4959 28.3851 10.9241 27.9386C11.2039 27.6469 11.4813 27.3858 11.7511 27.1319C11.8493 27.0395 11.9465 26.948 12.0424 26.8564C12.3903 26.5239 12.7269 26.1842 12.9665 25.826C12.9744 25.814 12.9825 25.802 12.9906 25.7899C13.1584 25.5394 13.3521 25.2502 13.4365 24.9167C13.5334 24.5334 13.4798 24.1415 13.2698 23.6903C12.8162 22.7155 12.079 21.9829 10.985 21.6663C10.4244 21.504 9.83928 21.641 9.44636 21.7783C9.24087 21.8501 9.06593 21.9299 8.94215 21.9917C8.87993 22.0227 8.8298 22.0497 8.79426 22.0694C8.77647 22.0793 8.76228 22.0874 8.75199 22.0934L8.7395 22.1007L8.73552 22.1031L8.7341 22.104L8.73354 22.1043L8.73329 22.1045C8.73318 22.1045 8.73307 22.1046 8.9809 22.5004Z" fill="#F9FAF8" stroke="#F9FAF8" stroke-width="0.939284"/>
<path d="M25.709 23.1117L25.9583 22.7168L25.9803 22.7302L26.0007 22.7458L25.709 23.1117ZM25.709 23.1117C26.0007 22.7458 26.0008 22.7459 26.001 22.746L26.0013 22.7463L26.0023 22.747L26.0054 22.7494L26.0162 22.7578L26.0555 22.7889C26.0894 22.8158 26.1382 22.855 26.1997 22.9058C26.3228 23.0073 26.4972 23.1552 26.7058 23.3431C27.1224 23.7184 27.6788 24.2562 28.2362 24.906C29.3331 26.1846 30.5116 27.985 30.5083 29.8759C30.5075 30.3651 30.46 30.7728 30.2455 31.1605C30.0384 31.5346 29.7019 31.8406 29.2521 32.1931C28.7626 32.5768 28.1397 32.7635 27.558 32.7628C26.9829 32.7622 26.3749 32.5754 25.9855 32.1193C25.7648 31.8608 25.7015 31.5204 25.6788 31.3158C25.6677 31.216 25.6641 31.1258 25.6635 31.0561C25.6353 31.0103 25.599 30.9517 25.5556 30.8827C25.4431 30.7037 25.2836 30.4551 25.0962 30.1773C24.7171 29.6156 24.2393 28.9583 23.8109 28.5113C23.5311 28.2193 23.2539 27.9577 22.9844 27.7034C22.8864 27.611 22.7894 27.5195 22.6937 27.4278C22.3461 27.095 22.0102 26.7555 21.7705 26.3983C21.7625 26.3864 21.7545 26.3744 21.7464 26.3623C21.5782 26.1122 21.3844 25.824 21.2987 25.4925C21.2001 25.111 21.2505 24.7208 21.4568 24.2717C21.9016 23.303 22.6311 22.5763 23.7184 22.2673C24.2761 22.1088 24.8587 22.2494 25.2488 22.3881C25.4531 22.4608 25.6272 22.5411 25.7503 22.6033C25.8122 22.6346 25.8621 22.6616 25.8975 22.6815C25.9152 22.6914 25.9293 22.6996 25.9395 22.7056L25.9519 22.7129L25.9559 22.7153L25.9573 22.7161L25.9579 22.7165L25.9581 22.7166C25.9582 22.7167 25.9583 22.7168 25.709 23.1117Z" fill="#F9FAF8" stroke="#F9FAF8" stroke-width="0.939284"/>
<path d="M4.96318 3.53292C5.05869 3.14774 5.46116 2.91434 5.87798 3.00212C6.91432 3.22036 8.81206 3.64362 10.0747 4.06509C10.8308 4.31749 11.7294 4.67376 12.4481 4.97098C13.025 5.20956 13.1069 5.9353 12.6004 6.26265L5.35004 10.9486C4.81597 11.2938 4.07596 10.9165 4.0883 10.3004C4.10848 9.29291 4.15324 7.98684 4.25249 7.11163C4.38085 5.97966 4.74392 4.41717 4.96318 3.53292Z" fill="#F9FAF8"/>
<path d="M5.61208 4.45762C5.69888 4.05407 6.12104 3.8086 6.55198 3.91152C7.52483 4.14385 9.20028 4.56658 10.3305 4.97509C11.0154 5.22265 11.8281 5.56655 12.4871 5.85684C13.0493 6.10447 13.121 6.81668 12.623 7.14006L6.26077 11.2719C5.73431 11.6138 5.00131 11.2513 4.9975 10.6425C4.99165 9.70565 5.00115 8.51193 5.06909 7.70849C5.15543 6.68725 5.43194 5.29509 5.61208 4.45762Z" fill="#F9FAF8"/>
<path d="M29.5919 3.83538C29.4898 3.46442 29.1238 3.23202 28.7367 3.29185C27.7178 3.44933 25.7678 3.77449 24.4847 4.13752C23.7548 4.34405 22.8931 4.64262 22.1913 4.89854C21.6052 5.11224 21.507 5.87445 22.0131 6.22924L29.4896 11.4704C30.0214 11.8431 30.7559 11.4505 30.7209 10.8073C30.6654 9.78521 30.5762 8.48472 30.4488 7.60301C30.2763 6.40964 29.8407 4.73986 29.5919 3.83538Z" fill="#F9FAF8"/>
<path d="M29.7929 4.63871C29.7235 4.32914 29.4357 4.12027 29.1138 4.14788C28.0528 4.23888 25.7124 4.48127 24.2046 4.94918C23.2889 5.23336 22.1606 5.762 21.3939 6.14517C20.9711 6.35651 20.9193 6.91963 21.2889 7.20749L29.3739 13.505C29.7767 13.8188 30.3715 13.5781 30.425 13.0736C30.5486 11.9085 30.6965 10.1251 30.5857 9.04848C30.439 7.62282 30.0065 5.59268 29.7929 4.63871Z" fill="#F9FAF8"/>
<path d="M8.49995 23.4734L8.11613 23.2027L8.06315 23.2779L8.04241 23.3674L8.49995 23.4734ZM8.49995 23.4734C8.11613 23.2027 8.11623 23.2026 8.11633 23.2024L8.11656 23.2021L8.11706 23.2014L8.11831 23.1997L8.12177 23.1948L8.13245 23.1803C8.14123 23.1684 8.15334 23.1524 8.16859 23.133C8.19904 23.0942 8.24242 23.0413 8.29738 22.9801C8.40611 22.8591 8.56616 22.6992 8.76693 22.5532C9.15869 22.2684 9.80148 21.9748 10.5174 22.3036C12.6609 23.2882 15.2938 23.7354 17.7029 23.7089C20.1308 23.6823 22.233 23.1764 23.3676 22.3507C23.6965 22.1113 24.0643 22.1466 24.34 22.2439C24.6099 22.3391 24.8592 22.5133 25.0559 22.676C25.2581 22.8431 25.4342 23.0229 25.558 23.1581C25.6204 23.2263 25.671 23.2848 25.7064 23.3268C25.7241 23.3478 25.7381 23.3648 25.748 23.3769L25.7597 23.3914L25.7632 23.3957L25.7643 23.3971L25.7647 23.3976L25.7648 23.3978C25.7649 23.3979 25.765 23.398 25.3968 23.6895M8.49995 23.4734L8.04239 23.3675L8.04236 23.3677L8.04225 23.3681L8.04186 23.3698L8.04042 23.3761L8.03502 23.3998L8.01478 23.4899C7.99737 23.5681 7.97249 23.6817 7.94234 23.8241C7.88208 24.1087 7.80065 24.5091 7.71579 24.9729C7.54685 25.8965 7.36124 27.0881 7.30561 28.1219L7.30467 28.1394C7.2076 29.943 7.11153 31.728 8.09252 33.4391C8.35694 33.9003 8.91312 34.1992 9.48797 34.4095C10.0906 34.6299 10.8356 34.7951 11.6231 34.9184C13.2011 35.1655 15.0216 35.2556 16.3805 35.2556H16.4026C18.1544 35.2556 20.1164 35.2556 21.7727 35.0006C22.6059 34.8723 23.3875 34.6761 24.0391 34.3684C24.6921 34.06 25.2443 33.6251 25.5658 33.0059C26.526 31.1566 26.4409 29.8933 26.3117 27.9743C26.3089 27.9317 26.306 27.8889 26.3031 27.8456C26.2361 26.8468 26.1257 25.7915 26.0324 24.9881C25.9858 24.5859 25.9432 24.2457 25.9123 24.0059C25.8969 23.886 25.8843 23.7911 25.8756 23.7261L25.8656 23.6515L25.863 23.6322L25.8623 23.6271L25.8621 23.6258L25.862 23.6255L25.862 23.6253L25.3968 23.6895M25.3968 23.6895L25.765 23.398L25.8445 23.4984L25.862 23.6253L25.3968 23.6895Z" fill="#F9FAF8" stroke="#F9FAF8" stroke-width="0.939284"/>
<path d="M30.6445 15.9756C30.5425 23.2467 28.0489 25.9502 16.7171 26.5629C6.3354 25.9416 3.27501 22.8453 3.37695 15.5742C8.28445 20.5307 11.0398 22.2009 16.7263 22.4548C22.7516 22.7239 26.4131 21.7224 30.6445 15.9756Z" fill="#F9FAF8"/>
<path d="M17.0644 25.1908L17.0825 25.1917L17.1007 25.1909C22.2019 24.9658 25.4154 24.3342 27.3587 22.9884C29.3532 21.6072 29.944 19.5291 29.9832 16.6793C30.0644 10.7715 24.3582 6.70366 17.4741 6.60903C10.5906 6.5144 4.76153 10.4233 4.68031 16.3315C4.64086 19.2012 5.32772 21.3393 7.31118 22.795C9.25415 24.2211 12.3792 24.9403 17.0644 25.1908Z" fill="#C7C8C6" stroke="#C7C8C6" stroke-width="0.744782"/>
<path d="M9.45992 31.7028L9.12625 31.5374L9.09715 31.5962L9.08985 31.6613L9.45992 31.7028ZM9.45992 31.7028C9.12625 31.5374 9.12635 31.5372 9.12646 31.537L9.12667 31.5366L9.12714 31.5357L9.12823 31.5335L9.13098 31.5282L9.13887 31.5134C9.1452 31.5018 9.15373 31.4868 9.16459 31.4689C9.18629 31.4331 9.21744 31.3854 9.25915 31.3302C9.34242 31.2199 9.46908 31.0778 9.64816 30.94C10.0124 30.6598 10.5752 30.4121 11.3822 30.4622C12.3317 30.5212 12.9113 30.7532 13.2641 31.0086C13.4403 31.1361 13.5549 31.266 13.6281 31.3745C13.6645 31.4284 13.69 31.4761 13.7076 31.5144C13.7164 31.5336 13.7233 31.5503 13.7285 31.5643C13.7311 31.5713 13.7333 31.5776 13.7351 31.5831L13.7376 31.5908L13.7387 31.5943L13.7391 31.5959L13.7394 31.5967C13.7395 31.597 13.7396 31.5974 13.3824 31.7028M9.45992 31.7028L9.08984 31.6613L9.08984 31.6614L9.08981 31.6616L9.08972 31.6624L9.08938 31.6654L9.08812 31.6769L9.08339 31.7205C9.07933 31.7583 9.07355 31.813 9.06661 31.8812C9.05275 32.0175 9.03423 32.2081 9.01561 32.4251C8.97861 32.8562 8.94023 33.4025 8.93857 33.8364C8.93854 33.8454 8.9385 33.8544 8.93847 33.8634C8.93682 34.2811 8.93519 34.6971 9.0421 35.069C9.1598 35.4785 9.40116 35.8186 9.83677 36.109C9.94322 36.1799 10.0703 36.2236 10.1839 36.2534C10.3031 36.2846 10.4362 36.3077 10.5723 36.3252C10.8447 36.3602 11.1558 36.3761 11.444 36.3824C11.7338 36.3888 12.0082 36.3856 12.2096 36.3809C12.3105 36.3785 12.3936 36.3757 12.4516 36.3735L12.5192 36.3708L12.5373 36.37L12.5422 36.3698L12.5435 36.3697L12.5439 36.3697L12.544 36.3697L12.5259 35.9977M13.3824 31.7028L13.751 31.6497L13.751 31.6498L13.7511 31.6499L13.7511 31.6505L13.7515 31.6528L13.7527 31.6614L13.7573 31.6942C13.7613 31.7225 13.767 31.7636 13.7739 31.8147C13.7878 31.917 13.8066 32.0599 13.8264 32.2228C13.8659 32.5462 13.9106 32.9569 13.9281 33.2843C13.9447 33.5963 13.9541 33.9898 13.9594 34.3024C13.962 34.4593 13.9636 34.5969 13.9646 34.6954L13.9652 34.7712C13.9816 34.8082 14.0013 34.8558 14.0206 34.9099C14.061 35.0229 14.1202 35.2192 14.1005 35.4145C14.0726 35.6911 13.8966 35.8779 13.7361 35.9922C13.5748 36.107 13.3835 36.1828 13.2192 36.2339C13.0509 36.2862 12.8879 36.3194 12.769 36.3395C12.7089 36.3496 12.6587 36.3567 12.6229 36.3613C12.6049 36.3636 12.5905 36.3653 12.5802 36.3664L12.5678 36.3678L12.564 36.3682L12.5627 36.3683L12.5622 36.3683L12.562 36.3684C12.562 36.3684 12.5619 36.3684 12.5259 35.9977M13.3824 31.7028L13.751 31.6497L13.7472 31.6231L13.7396 31.5974L13.3824 31.7028ZM12.5259 35.9977L12.5441 36.3697L12.553 36.3692L12.5619 36.3684L12.5259 35.9977Z" fill="#C7C8C6" stroke="#C7C8C6" stroke-width="0.744782"/>
<path d="M24.7295 31.7028L25.0632 31.5374L25.0923 31.5962L25.0996 31.6613L24.7295 31.7028ZM24.7295 31.7028C25.0632 31.5374 25.0631 31.5372 25.063 31.537L25.0628 31.5366L25.0623 31.5357L25.0612 31.5335L25.0585 31.5282L25.0506 31.5134C25.0442 31.5018 25.0357 31.4868 25.0249 31.4689C25.0032 31.4331 24.972 31.3854 24.9303 31.3302C24.847 31.2199 24.7204 31.0778 24.5413 30.94C24.177 30.6598 23.6142 30.4121 22.8073 30.4622C21.8577 30.5212 21.2782 30.7532 20.9254 31.0086C20.7492 31.1361 20.6345 31.266 20.5613 31.3745C20.525 31.4284 20.4995 31.4761 20.4818 31.5144C20.473 31.5336 20.4662 31.5503 20.461 31.5643C20.4584 31.5713 20.4562 31.5776 20.4544 31.5831L20.4519 31.5908L20.4508 31.5943L20.4503 31.5959L20.4501 31.5967C20.45 31.597 20.4499 31.5974 20.807 31.7028M24.7295 31.7028L25.0996 31.6613L25.0996 31.6614L25.0996 31.6616L25.0997 31.6624L25.1001 31.6654L25.1013 31.6769L25.1061 31.7205C25.1101 31.7583 25.1159 31.813 25.1228 31.8812C25.1367 32.0175 25.1552 32.2081 25.1738 32.4251C25.2108 32.8562 25.2492 33.4025 25.2509 33.8364C25.2509 33.8454 25.251 33.8544 25.251 33.8634C25.2526 34.2811 25.2543 34.6971 25.1474 35.069C25.0297 35.4785 24.7883 35.8186 24.3527 36.109C24.2462 36.1799 24.1192 36.2236 24.0055 36.2534C23.8864 36.2846 23.7532 36.3077 23.6171 36.3252C23.3448 36.3602 23.0336 36.3761 22.7454 36.3824C22.4556 36.3888 22.1812 36.3856 21.9798 36.3809C21.8789 36.3785 21.7959 36.3757 21.7378 36.3735L21.6703 36.3708L21.6522 36.37L21.6473 36.3698L21.646 36.3697L21.6456 36.3697L21.6454 36.3697L21.6635 35.9977M20.807 31.7028L20.4384 31.6497L20.4384 31.6498L20.4384 31.6499L20.4383 31.6505L20.438 31.6528L20.4368 31.6614L20.4321 31.6942C20.4282 31.7225 20.4225 31.7636 20.4155 31.8147C20.4017 31.917 20.3829 32.0599 20.363 32.2228C20.3236 32.5462 20.2788 32.9569 20.2614 33.2843C20.2447 33.5963 20.2353 33.9898 20.2301 34.3024C20.2274 34.4593 20.2258 34.5969 20.2249 34.6954L20.2242 34.7712C20.2079 34.8082 20.1881 34.8558 20.1688 34.9099C20.1285 35.0229 20.0692 35.2192 20.0889 35.4145C20.1169 35.6911 20.2928 35.8779 20.4533 35.9922C20.6147 36.107 20.806 36.1828 20.9702 36.2339C21.1385 36.2862 21.3016 36.3194 21.4205 36.3395C21.4805 36.3496 21.5307 36.3567 21.5666 36.3613C21.5845 36.3636 21.599 36.3653 21.6093 36.3664L21.6217 36.3678L21.6255 36.3682L21.6267 36.3683L21.6272 36.3683L21.6274 36.3684C21.6275 36.3684 21.6276 36.3684 21.6635 35.9977M20.807 31.7028L20.4384 31.6497L20.4423 31.6231L20.4499 31.5974L20.807 31.7028ZM21.6635 35.9977L21.6454 36.3697L21.6365 36.3692L21.6276 36.3684L21.6635 35.9977Z" fill="#C7C8C6" stroke="#C7C8C6" stroke-width="0.744782"/>
<path d="M10.1016 23.1191L9.88238 22.8181L9.86982 22.8272L9.85807 22.8374L10.1016 23.1191ZM10.1016 23.1191C9.85807 22.8374 9.85801 22.8374 9.85793 22.8375L9.85769 22.8377L9.85698 22.8383L9.85453 22.8404L9.84568 22.8482L9.8127 22.8772C9.78414 22.9025 9.74271 22.9396 9.69014 22.9875C9.58501 23.0834 9.43518 23.2228 9.25452 23.3986C8.89355 23.75 8.40766 24.2487 7.90852 24.8377C6.92505 25.9984 5.83251 27.5756 5.6203 29.0948C5.5659 29.4842 5.55103 29.8219 5.67987 30.1356C5.80834 30.4483 6.05586 30.6788 6.36487 30.9192C6.73538 31.2073 7.22502 31.2845 7.67068 31.2184C8.11904 31.1518 8.57326 30.9337 8.88617 30.5631C9.05636 30.3615 9.1389 30.1061 9.18061 29.9339C9.20276 29.8424 9.21635 29.7614 9.22448 29.7028C9.25358 29.6588 9.29521 29.5963 9.34719 29.5191C9.45521 29.3587 9.60768 29.1357 9.78523 28.8855C10.1429 28.3814 10.593 27.7803 10.9837 27.3558C11.2356 27.082 11.4832 26.8324 11.721 26.5929C11.8066 26.5066 11.8909 26.4216 11.9737 26.3373C12.2798 26.0253 12.5672 25.7196 12.7828 25.4145C12.7894 25.4052 12.796 25.3959 12.8026 25.3865C12.9634 25.1592 13.1333 24.9189 13.2304 24.6573C13.3409 24.3595 13.3553 24.0472 13.2421 23.6825C13.125 23.3052 12.9414 22.9702 12.6694 22.7108C12.3948 22.4488 12.0483 22.2817 11.6373 22.2152C11.2087 22.1459 10.7457 22.3317 10.4465 22.481C10.2853 22.5613 10.1461 22.6444 10.0473 22.7073C9.99768 22.7388 9.95766 22.7656 9.92951 22.785C9.91542 22.7946 9.90427 22.8024 9.89633 22.8081L9.88685 22.8148L9.88397 22.8169L9.88301 22.8176L9.88265 22.8178L9.88251 22.818C9.88244 22.818 9.88238 22.8181 10.1016 23.1191Z" fill="#C7C8C6" stroke="#C7C8C6" stroke-width="0.744782"/>
<path d="M24.2402 23.1191L24.4594 22.8181L24.472 22.8272L24.4837 22.8374L24.2402 23.1191ZM24.2402 23.1191C24.4837 22.8374 24.4838 22.8374 24.4839 22.8375L24.4841 22.8377L24.4848 22.8383L24.4873 22.8404L24.4961 22.8482L24.5291 22.8772C24.5577 22.9025 24.5991 22.9396 24.6517 22.9875C24.7568 23.0834 24.9066 23.2228 25.0873 23.3986C25.4482 23.75 25.9341 24.2487 26.4333 24.8377C27.4167 25.9984 28.5093 27.5756 28.7215 29.0948C28.7759 29.4842 28.7908 29.8219 28.6619 30.1356C28.5335 30.4483 28.2859 30.6788 27.9769 30.9192C27.6064 31.2073 27.1168 31.2845 26.6711 31.2184C26.2228 31.1518 25.7685 30.9337 25.4556 30.5631C25.2854 30.3615 25.2029 30.1061 25.1612 29.9339C25.139 29.8424 25.1254 29.7614 25.1173 29.7028C25.0882 29.6588 25.0466 29.5963 24.9946 29.5191C24.8866 29.3587 24.7341 29.1357 24.5566 28.8855C24.1989 28.3814 23.7488 27.7803 23.3581 27.3558C23.1062 27.082 22.8585 26.8324 22.6208 26.5929C22.5352 26.5066 22.4509 26.4216 22.3681 26.3373C22.062 26.0253 21.7746 25.7196 21.559 25.4145C21.5524 25.4052 21.5458 25.3959 21.5392 25.3865C21.3784 25.1592 21.2085 24.9189 21.1114 24.6573C21.0009 24.3595 20.9865 24.0472 21.0997 23.6825C21.2168 23.3052 21.4004 22.9702 21.6724 22.7108C21.947 22.4488 22.2935 22.2817 22.7045 22.2152C23.1331 22.1459 23.5961 22.3317 23.8953 22.481C24.0565 22.5613 24.1957 22.6444 24.2945 22.7073C24.3441 22.7388 24.3841 22.7656 24.4123 22.785C24.4264 22.7946 24.4375 22.8024 24.4455 22.8081L24.4549 22.8148L24.4578 22.8169L24.4588 22.8176L24.4591 22.8178L24.4593 22.818C24.4594 22.818 24.4594 22.8181 24.2402 23.1191Z" fill="#C7C8C6" stroke="#C7C8C6" stroke-width="0.744782"/>
<path d="M6.22886 5.20324C6.30386 4.87756 6.62498 4.67586 6.95091 4.74979C7.8208 4.9471 9.47143 5.34284 10.5633 5.73686C11.255 5.98647 12.0869 6.34665 12.7176 6.63075C13.1507 6.82589 13.2003 7.41372 12.8108 7.68585L6.43654 12.1398C6.02524 12.4272 5.46379 12.1338 5.47208 11.6321C5.48768 10.6881 5.52505 9.38948 5.61453 8.53639C5.72567 7.47689 6.04377 6.00695 6.22886 5.20324Z" fill="#C7C8C6"/>
<path d="M6.77918 6.04887C6.84732 5.7082 7.18473 5.49737 7.5212 5.58392C8.34018 5.79458 9.8008 6.19078 10.78 6.57339C11.4087 6.81907 12.164 7.168 12.7448 7.44662C13.1666 7.649 13.2085 8.22584 12.8256 8.49469L7.21379 12.4347C6.80827 12.7194 6.252 12.438 6.24812 11.9425C6.24122 11.0614 6.24645 9.87041 6.30787 9.08517C6.38284 8.12652 6.62648 6.81219 6.77918 6.04887Z" fill="#C7C8C6"/>
<path d="M28.4492 5.7884C28.3717 5.4803 28.072 5.28649 27.7591 5.34127C26.9152 5.489 25.2873 5.79421 24.2155 6.12322C23.5729 6.32047 22.8069 6.60783 22.2053 6.8443C21.7543 7.02156 21.6859 7.62235 22.0797 7.90466L28.3285 12.3843C28.743 12.6815 29.3155 12.3799 29.2974 11.8702C29.266 10.9798 29.2087 9.80031 29.1108 9.01295C28.9835 7.9892 28.6429 6.55779 28.4492 5.7884Z" fill="#C7C8C6"/>
<path d="M27.9555 6.59728C27.9009 6.34787 27.673 6.17871 27.4187 6.20136C26.6473 6.27008 25.0341 6.44488 23.9874 6.77618C23.3638 6.97355 22.601 7.33414 22.0605 7.60766C21.7294 7.77525 21.6911 8.22409 21.9818 8.45497L27.5777 12.9006C27.8947 13.1524 28.3612 12.9627 28.4021 12.5599C28.4876 11.7185 28.583 10.4895 28.5071 9.73754C28.4054 8.72972 28.1099 7.30373 27.9555 6.59728Z" fill="#C7C8C6"/>
<path d="M9.65678 23.5729L9.35047 23.3611L9.30955 23.4203L9.29363 23.4904L9.65678 23.5729ZM9.65678 23.5729C9.35047 23.3611 9.35055 23.361 9.35063 23.3609L9.3508 23.3606L9.35121 23.36L9.35224 23.3585L9.35515 23.3544L9.36435 23.3416C9.37197 23.3311 9.38256 23.3169 9.39597 23.2994C9.42272 23.2647 9.46101 23.217 9.5096 23.1618C9.6058 23.0526 9.74723 22.9086 9.92434 22.7773C10.2704 22.5206 10.832 22.2607 11.4558 22.5529C13.3946 23.4612 15.7736 23.8729 17.9489 23.8485C20.1392 23.824 22.0448 23.3589 23.0793 22.5911C23.3582 22.3841 23.6728 22.4129 23.9137 22.4996C24.1493 22.5844 24.3687 22.7403 24.5439 22.888C24.7235 23.0395 24.8803 23.2027 24.9908 23.3258C25.0465 23.3879 25.0915 23.441 25.123 23.4791C25.1387 23.4981 25.1512 23.5135 25.1599 23.5244L25.1702 23.5374L25.1732 23.5412L25.1741 23.5424L25.1744 23.5428L25.1746 23.543C25.1746 23.543 25.1747 23.5431 24.8805 23.7715M9.65678 23.5729L9.29361 23.4905L9.29358 23.4906L9.29349 23.491L9.29314 23.4926L9.29187 23.4982L9.28702 23.5199L9.26885 23.6024C9.25321 23.6741 9.23084 23.7782 9.20373 23.9088C9.14953 24.1699 9.07628 24.5372 8.99996 24.9628C8.84789 25.8106 8.68125 26.9023 8.63136 27.848L8.63088 27.8571C8.54317 29.5193 8.45753 31.1424 9.33216 32.6984C9.55961 33.103 10.0444 33.3727 10.5622 33.5659C11.1011 33.767 11.7692 33.9181 12.4774 34.0313C13.8962 34.2579 15.5341 34.3406 16.757 34.3406H16.775C18.3546 34.3406 20.1196 34.3406 21.6087 34.1068C22.3573 33.9892 23.0568 33.8098 23.6382 33.5298C24.2212 33.249 24.7073 32.8561 24.9891 32.3026C25.8461 30.6193 25.7705 29.4744 25.6541 27.7107C25.6516 27.6724 25.649 27.6339 25.6465 27.5951C25.5862 26.6787 25.4869 25.7102 25.4029 24.9724C25.3609 24.6031 25.3226 24.2908 25.2948 24.0707C25.2809 23.9606 25.2696 23.8736 25.2618 23.8139L25.2528 23.7455L25.2504 23.7278L25.2498 23.7232L25.2496 23.722L25.2496 23.7217L25.2496 23.7216L24.8805 23.7715M24.8805 23.7715L25.1747 23.5431L25.2361 23.6223L25.2496 23.7215L24.8805 23.7715Z" fill="#C7C8C6" stroke="#C7C8C6" stroke-width="0.744782"/>
<path d="M29.6106 16.6725C29.5332 22.3026 27.2919 24.3912 17.0837 24.8435C7.729 24.3422 4.96557 21.9387 5.04297 16.3086C9.47426 20.1561 11.9601 21.4548 17.0838 21.6625C22.5129 21.8826 25.8098 21.1142 29.6106 16.6725Z" fill="#C7C8C6"/>
</svg>
