<svg width="48" height="36" viewBox="0 0 48 36" fill="none" xmlns="http://www.w3.org/2000/svg">
<path d="M23.3116 35.7023L23.3226 35.7029L23.3337 35.7024C31.0616 35.3287 35.8352 34.2959 38.6888 32.1741C41.5668 30.0341 42.4513 26.8216 42.5142 22.242C42.6417 12.9674 34.2775 6.44002 23.9362 6.29786C13.5951 6.1557 5.03506 12.4502 4.90756 21.725C4.84445 26.3154 5.86179 29.6364 8.73221 31.8959C11.5835 34.1403 16.2242 35.3028 23.3116 35.7023Z" fill="#F9FAF8" stroke="#F9FAF8" stroke-width="0.423549"/>
<path d="M7.05078 4.38776C7.09492 4.2029 7.27561 4.08905 7.46126 4.12975C8.48778 4.3548 11.67 5.07648 13.6597 5.7945C15.1456 6.33073 17.0476 7.19492 17.9667 7.62269C18.2117 7.7367 18.2384 8.07108 18.0169 8.22583L6.27562 16.4299C6.04172 16.5933 5.72172 16.4277 5.72392 16.1423C5.73409 14.8255 5.77719 11.8915 5.95983 10.1503C6.1647 8.19721 6.82159 5.34766 7.05078 4.38776Z" fill="#F9FAF8"/>
<path d="M6.89751 5.66785C6.93798 5.47447 7.12882 5.35472 7.32055 5.40241C8.31023 5.64858 11.1843 6.38698 12.9973 7.09545C14.3623 7.62886 16.111 8.47509 16.97 8.90036C17.2084 9.01842 17.2314 9.34674 17.0136 9.49963L6.51256 16.8724C6.28194 17.0343 5.96497 16.8747 5.96024 16.593C5.93933 15.3465 5.91259 12.6215 6.03913 11.0035C6.17976 9.20535 6.7018 6.60285 6.89751 5.66785Z" fill="#F9FAF8"/>
<path d="M40.1098 4.8614C40.0642 4.68655 39.8954 4.57769 39.7172 4.60755C38.6897 4.77975 35.3602 5.36115 33.2905 5.99648C31.7693 6.46343 29.828 7.23719 28.8756 7.62733C28.6206 7.73178 28.5827 8.07393 28.8067 8.23448L41.1407 17.0764C41.3764 17.2454 41.7028 17.0748 41.6955 16.7848C41.6618 15.4476 41.5664 12.5082 41.3481 10.7529C41.0994 8.75318 40.3562 5.80849 40.1098 4.8614Z" fill="#F9FAF8"/>
<path d="M39.6259 5.70932C39.594 5.56768 39.4646 5.47201 39.3198 5.48335C38.4357 5.55261 35.4125 5.82357 33.5464 6.41418C32.2659 6.81947 30.6083 7.66709 29.8662 8.06183C29.6799 8.16096 29.6586 8.4167 29.8239 8.54799L39.8432 16.5076C40.0235 16.6508 40.2896 16.5436 40.3165 16.3149C40.4489 15.1905 40.7287 12.5075 40.5787 11.0218C40.3958 9.20869 39.8097 6.52574 39.6259 5.70932Z" fill="#F9FAF8"/>
<path d="M22.9757 33.8123L22.985 33.8128L22.9942 33.8124C30.0938 33.4991 34.4754 32.6191 37.0931 30.8063C39.737 28.9754 40.549 26.2206 40.603 22.2943C40.7124 14.3358 33.0108 8.7475 23.5238 8.61708C14.0237 8.48648 6.92046 13.9427 6.81119 21.8909C6.75723 25.8163 7.50279 28.6504 9.95553 30.5746C12.3889 32.4836 16.4663 33.4643 22.9757 33.8123Z" fill="#C7C8C6" stroke="#C7C8C6" stroke-width="0.379117"/>
<path d="M8.22501 6.77938C8.26126 6.60629 8.43182 6.49874 8.60344 6.54141C9.50073 6.76449 12.133 7.44025 13.7921 8.08855C15.0623 8.58489 16.6964 9.37796 17.4632 9.75828C17.668 9.85988 17.6968 10.1377 17.5192 10.2818L7.93463 18.0543C7.73172 18.2189 7.42897 18.0811 7.42228 17.8199C7.38696 16.4418 7.32099 13.18 7.44017 11.6561C7.56885 10.0108 8.04734 7.62776 8.22501 6.77938Z" fill="#C7C8C6"/>
<path d="M38.6749 7.67112C38.6342 7.51459 38.4835 7.41685 38.324 7.44362C37.4385 7.59226 34.6464 8.08114 32.907 8.61508C31.6182 9.01069 29.9727 9.66682 29.1697 9.99584C28.9491 10.0862 28.9082 10.378 29.0933 10.5282L39.5007 18.9685C39.7087 19.1372 40.0181 18.9889 40.0129 18.7212C39.9859 17.332 39.9057 14.1479 39.7176 12.6354C39.5087 10.9559 38.8872 8.48777 38.6749 7.67112Z" fill="#C7C8C6"/>
<path d="M38.0268 7.89578C37.9982 7.769 37.8824 7.68337 37.7528 7.69352C36.9619 7.75549 34.2591 7.99777 32.5907 8.52583C31.4459 8.88815 29.9641 9.64585 29.3003 9.9989C29.1335 10.0876 29.1145 10.3166 29.2624 10.4341L38.2207 17.5508C38.3821 17.679 38.6202 17.583 38.6443 17.3783C38.7628 16.3726 39.0128 13.9741 38.8788 12.6458C38.7152 11.0248 38.1912 8.62605 38.0268 7.89578Z" fill="#C7C8C6"/>
<path d="M23.8105 2.89453C20.7681 3.53453 22.2324 6.49453 23.3448 7.89453L24.7418 5.69453C25.4868 3.50786 24.4314 2.91675 23.8105 2.89453Z" fill="#AAAAAA" stroke="#F9FAF8" stroke-width="1.5" stroke-linejoin="round"/>
<path d="M19.9754 6.56767C11.2036 8.66999 12.6733 10.7814 12.8545 11.4157C13.3982 12.7296 14.3497 12.8656 14.9914 13.0921C14.9914 13.0921 18.8427 13.9983 23.8266 13.9983C28.8105 13.9983 32.2994 12.9562 32.2994 12.9562C33.47 12.2766 34.1043 12.1859 34.3835 10.3736C34.6627 8.56126 32.0728 7.88161 27.0435 6.56767C27.0435 6.56767 25.0294 6.1444 23.8266 6.20519C22.612 6.26658 19.9754 6.56767 19.9754 6.56767Z" fill="#AAAAAA" stroke="#F9FAF8" stroke-width="1.5"/>
</svg>
