<svg width="47" height="36" viewBox="0 0 47 36" fill="none" xmlns="http://www.w3.org/2000/svg">
<path d="M22.9756 35.7023L22.9867 35.7029L22.9978 35.7024C30.7256 35.3287 35.4992 34.2959 38.3528 32.1741C41.2308 30.0341 42.1153 26.8216 42.1783 22.242C42.3058 12.9674 33.9416 6.44002 23.6002 6.29786C13.2592 6.1557 4.69912 12.4502 4.57162 21.725C4.50852 26.3154 5.52585 29.6364 8.39627 31.8959C11.2476 34.1403 15.8882 35.3028 22.9756 35.7023Z" fill="#F9FAF8" stroke="#F9FAF8" stroke-width="0.423549"/>
<path d="M6.71484 4.38776C6.75898 4.2029 6.93967 4.08905 7.12532 4.12975C8.15184 4.3548 11.334 5.07648 13.3237 5.7945C14.8096 6.33073 16.7116 7.19492 17.6308 7.62269C17.8757 7.7367 17.9025 8.07108 17.681 8.22583L5.93968 16.4299C5.70578 16.5933 5.38578 16.4277 5.38798 16.1423C5.39815 14.8255 5.44125 11.8915 5.62389 10.1503C5.82876 8.19721 6.48566 5.34766 6.71484 4.38776Z" fill="#F9FAF8"/>
<path d="M6.56157 5.66785C6.60204 5.47447 6.79289 5.35472 6.98462 5.40241C7.97429 5.64858 10.8483 6.38698 12.6614 7.09545C14.0264 7.62886 15.7751 8.47509 16.634 8.90036C16.8725 9.01842 16.8955 9.34674 16.6777 9.49963L6.17662 16.8724C5.946 17.0343 5.62903 16.8747 5.6243 16.593C5.60339 15.3465 5.57665 12.6215 5.70319 11.0035C5.84382 9.20535 6.36587 6.60285 6.56157 5.66785Z" fill="#F9FAF8"/>
<path d="M39.7738 4.8614C39.7283 4.68655 39.5595 4.57769 39.3813 4.60755C38.3537 4.77975 35.0243 5.36115 32.9546 5.99648C31.4334 6.46343 29.492 7.23719 28.5396 7.62733C28.2846 7.73178 28.2468 8.07393 28.4708 8.23448L40.8047 17.0764C41.0405 17.2454 41.3669 17.0748 41.3596 16.7848C41.3259 15.4476 41.2305 12.5082 41.0122 10.7529C40.7635 8.75318 40.0203 5.80849 39.7738 4.8614Z" fill="#F9FAF8"/>
<path d="M39.2899 5.70932C39.2581 5.56768 39.1286 5.47201 38.9839 5.48335C38.0997 5.55261 35.0766 5.82357 33.2105 6.41418C31.93 6.81947 30.2724 7.66709 29.5303 8.06183C29.344 8.16096 29.3227 8.4167 29.488 8.54799L39.5073 16.5076C39.6876 16.6508 39.9536 16.5436 39.9806 16.3149C40.113 15.1905 40.3927 12.5075 40.2428 11.0218C40.0599 9.20869 39.4738 6.52574 39.2899 5.70932Z" fill="#F9FAF8"/>
<path d="M22.6398 33.8123L22.649 33.8128L22.6583 33.8124C29.7579 33.4991 34.1394 32.6191 36.7572 30.8063C39.401 28.9754 40.2131 26.2206 40.267 22.2943C40.3764 14.3358 32.6749 8.7475 23.1879 8.61708C13.6877 8.48648 6.58452 13.9427 6.47525 21.8909C6.42129 25.8163 7.16685 28.6504 9.61959 30.5746C12.053 32.4836 16.1303 33.4643 22.6398 33.8123Z" fill="#C7C8C6" stroke="#C7C8C6" stroke-width="0.379117"/>
<path d="M7.88907 6.77938C7.92532 6.60629 8.09588 6.49874 8.2675 6.54141C9.16479 6.76449 11.7971 7.44025 13.4561 8.08855C14.7264 8.58489 16.3605 9.37796 17.1272 9.75828C17.3321 9.85988 17.3608 10.1377 17.1832 10.2818L7.5987 18.0543C7.39578 18.2189 7.09304 18.0811 7.08634 17.8199C7.05102 16.4418 6.98505 13.18 7.10423 11.6561C7.23291 10.0108 7.7114 7.62776 7.88907 6.77938Z" fill="#C7C8C6"/>
<path d="M38.339 7.67112C38.2983 7.51459 38.1476 7.41685 37.9881 7.44362C37.1025 7.59226 34.3105 8.08114 32.571 8.61508C31.2823 9.01069 29.6367 9.66682 28.8337 9.99584C28.6132 10.0862 28.5723 10.378 28.7574 10.5282L39.1647 18.9685C39.3727 19.1372 39.6822 18.9889 39.677 18.7212C39.65 17.332 39.5698 14.1479 39.3817 12.6354C39.1728 10.9559 38.5513 8.48777 38.339 7.67112Z" fill="#C7C8C6"/>
<path d="M37.6908 7.89578C37.6623 7.769 37.5464 7.68337 37.4169 7.69352C36.626 7.75549 33.9231 7.99777 32.2547 8.52583C31.11 8.88815 29.6281 9.64585 28.9644 9.9989C28.7976 10.0876 28.7786 10.3166 28.9265 10.4341L37.8848 17.5508C38.0461 17.679 38.2843 17.583 38.3084 17.3783C38.4268 16.3726 38.6768 13.9741 38.5428 12.6458C38.3793 11.0248 37.8553 8.62605 37.6908 7.89578Z" fill="#C7C8C6"/>
<path d="M21 22.299C21.9135 22.0734 24.3684 21.7575 26.8797 22.299" stroke="#F9FAF8" stroke-width="5"/>
<circle cx="15" cy="22" r="5" stroke="#F9FAF8" stroke-width="5"/>
<circle cx="32" cy="22" r="5" stroke="#F9FAF8" stroke-width="5"/>
<path d="M20 22.5774C21 22.0774 24.5 21.5773 27 22.5774" stroke="#AAAAAA" stroke-width="2"/>
<circle cx="15" cy="22" r="5" stroke="#AAAAAA" stroke-width="2"/>
<circle cx="32" cy="22" r="5" stroke="#AAAAAA" stroke-width="2"/>
</svg>
