<svg width="510" height="158" viewBox="0 0 510 158" fill="none" xmlns="http://www.w3.org/2000/svg">
<g filter="url(#filter0_d_294_9549)">
<path d="M498.52 42.1481C500.526 39.4532 499.147 35.6156 495.882 34.881C478.871 31.0539 435.651 21.4374 427.401 20.6494C417.08 19.6635 403.359 17.6909 397.246 21.305C378.379 32.4589 380.926 87.9747 381.981 103.008C382.136 105.217 383.864 106.918 386.071 107.129C390.704 107.572 399.45 108.407 411.577 109.565C425.985 110.942 466.994 121.196 484.881 125.783C488.502 126.712 491.712 123.203 490.471 119.683L475.332 76.7353C474.819 75.2788 475.067 73.6579 475.994 72.4121L498.52 42.1481Z" fill="url(#paint0_linear_294_9549)"/>
<path d="M11.1017 44.0581C9.10461 41.3632 10.4826 37.5353 13.7418 36.8004C30.6766 32.9818 73.663 23.3962 81.8706 22.6133C92.1408 21.6337 105.795 19.6695 111.881 23.2869C130.662 34.4503 128.164 89.9516 127.124 104.989C126.971 107.2 125.243 108.903 123.035 109.114C118.419 109.554 109.724 110.383 97.6755 111.533C83.3451 112.9 42.5774 123.118 24.7639 127.698C21.1464 128.628 17.9344 125.126 19.1671 121.607L34.2099 78.6574C34.7181 77.2064 34.4711 75.5931 33.5504 74.3507L11.1017 44.0581Z" fill="url(#paint1_linear_294_9549)"/>
<path d="M66.2246 13.1902C66.2246 10.7633 68.0274 8.75095 70.4475 8.56976C91.7133 6.97761 188.613 0 253.501 0C318.39 0 415.29 6.97761 436.555 8.56976C438.976 8.75095 440.778 10.7633 440.778 13.1902V99.5698C440.778 102.279 438.474 104.417 435.772 104.215C413.011 102.518 317.626 95.7038 253.501 95.7038C189.377 95.7038 93.9923 102.518 71.2305 104.215C68.5286 104.417 66.2246 102.279 66.2246 99.5698V13.1902Z" fill="url(#paint2_linear_294_9549)"/>
</g>
<path d="M162.876 42.6794C162.512 42.6794 162.147 42.6794 161.783 42.6794C161.418 42.6794 161.053 42.6794 160.689 42.6794L160.415 38.9883C160.689 38.9883 160.962 38.9883 161.236 38.9883C161.509 38.9883 161.783 38.9883 162.056 38.9883C162.457 38.9883 162.739 38.9701 162.904 38.9336C163.068 38.8972 163.177 38.7878 163.232 38.6055C163.305 38.405 163.368 38.0769 163.423 37.6212C163.587 36.4729 163.742 35.3064 163.888 34.1216C164.052 32.9368 164.207 31.7429 164.353 30.5399C164.517 29.3186 164.662 28.1247 164.79 26.9582H155.084C154.883 28.4893 154.628 30.066 154.318 31.6882C154.027 33.2922 153.699 34.8962 153.334 36.5003C152.988 38.086 152.614 39.6354 152.213 41.1483L147.292 40.9022C147.784 39.043 148.239 37.0927 148.659 35.0512C149.096 33.0097 149.479 30.9864 149.807 28.9814C150.135 26.9582 150.39 25.0534 150.573 23.2671H169.985C169.839 24.9987 169.657 26.8215 169.438 28.7354C169.238 30.6492 169.01 32.554 168.755 34.4497C168.499 36.3271 168.226 38.1134 167.934 39.8085C167.825 40.5194 167.588 41.0845 167.223 41.5037C166.877 41.9229 166.358 42.2237 165.665 42.406C164.972 42.5882 164.043 42.6794 162.876 42.6794ZM149.752 39.5351V35.9808H171.352V39.5351H149.752ZM160.279 38.5782H155.494C155.822 37.1564 156.123 35.6527 156.396 34.0669C156.688 32.4811 156.952 30.8771 157.189 29.2548C157.444 27.6144 157.654 26.0286 157.818 24.4975H162.603C162.439 26.0286 162.229 27.6144 161.974 29.2548C161.737 30.8771 161.473 32.4811 161.181 34.0669C160.908 35.6527 160.607 37.1564 160.279 38.5782ZM146.198 33.3834V29.4189H172.446V33.3834H146.198ZM150.026 27.9151L146.061 25.3177C147.118 24.0418 148.075 22.6383 148.932 21.1071C149.789 19.5578 150.472 17.9538 150.983 16.2951L155.631 17.252C155.066 19.2388 154.3 21.1345 153.334 22.939C152.386 24.7435 151.283 26.4022 150.026 27.9151ZM152.213 22.1735V18.209H171.625V22.1735H152.213ZM177.367 41.7224V17.3887H198.693V41.7224H193.635V40.3554H182.425V36.2542H193.635V30.7859L182.425 30.7859V26.6848L193.635 26.6848V21.6266H182.425V41.7224H177.367ZM204.982 40.9022V19.0292H228.495V40.9022H223.164V38.9883H210.313V40.9022H204.982ZM210.313 34.3403H223.164V23.6772H210.313V34.3403ZM236.014 36.5276C238.384 36.2542 240.516 35.7165 242.412 34.9145C244.326 34.1125 245.948 33.0917 247.279 31.8522C248.627 30.6128 249.657 29.191 250.368 27.587C251.097 25.9648 251.462 24.2058 251.462 22.3102L253.649 24.7709H240.662V20.1229H256.793V22.3102C256.793 24.3516 256.502 26.2746 255.918 28.0792C255.353 29.8655 254.524 31.5059 253.43 33.0006C252.355 34.477 251.033 35.7803 249.466 36.9104C247.916 38.0405 246.148 38.961 244.162 39.6718C242.175 40.4009 240.006 40.9022 237.654 41.1756L236.014 36.5276ZM231.913 28.0245C233.152 27.1678 234.319 26.1562 235.412 24.9896C236.506 23.823 237.472 22.5653 238.311 21.2165C239.167 19.8677 239.842 18.5006 240.334 17.1153L245.611 17.9356C245.064 19.813 244.317 21.5719 243.369 23.2124C242.439 24.8347 241.309 26.3476 239.978 27.7511C238.648 29.1364 237.098 30.4123 235.33 31.5788L231.913 28.0245ZM251.489 23.021C250.997 22.0732 250.496 21.2074 249.985 20.4236C249.493 19.6216 248.928 18.8105 248.29 17.9902L251.106 16.3498C251.744 17.1153 252.318 17.9173 252.829 18.7558C253.357 19.576 253.868 20.4692 254.36 21.4352L251.489 23.021ZM256.082 22.5289C255.663 21.5628 255.226 20.6697 254.77 19.8495C254.314 19.0292 253.795 18.1908 253.212 17.3341L256.082 15.885C256.666 16.7052 257.185 17.5437 257.641 18.4004C258.097 19.2388 258.543 20.1684 258.981 21.1892L256.082 22.5289ZM261.851 27.505C263.656 27.2316 265.542 26.7668 267.511 26.1106C269.498 25.4544 271.457 24.6615 273.389 23.7319C275.34 22.7841 277.162 21.7451 278.858 20.615C280.571 19.4849 282.057 18.3183 283.314 17.1153L286.458 20.9431C285.347 22.0003 284.062 23.0301 282.603 24.0327C281.163 25.0169 279.614 25.9557 277.955 26.8488C276.315 27.742 274.62 28.5531 272.87 29.2822C271.138 30.0113 269.407 30.631 267.675 31.1414C265.943 31.6517 264.276 32.0345 262.672 32.2897L261.851 27.505ZM272.378 41.449V25.7278H277.983V41.449H272.378ZM292.474 35.5707C295.153 35.2972 297.495 34.8416 299.5 34.2036C301.505 33.5474 303.21 32.6634 304.613 31.5515C306.035 30.4214 307.201 29.027 308.113 27.3683C309.024 25.7096 309.735 23.7501 310.245 21.4899L315.167 22.5836C314.492 26.3384 313.253 29.4918 311.448 32.0436C309.662 34.5773 307.265 36.5549 304.258 37.9767C301.268 39.3802 297.614 40.2642 293.294 40.6288L292.474 35.5707ZM300.949 26.9582C299.418 26.1562 297.842 25.4179 296.219 24.7435C294.615 24.0509 293.002 23.422 291.38 22.857L293.841 18.209C297.122 19.3026 300.357 20.6697 303.547 22.3102L300.949 26.9582ZM331.025 40.9022C328.746 40.9022 326.887 40.565 325.447 39.8906C324.025 39.2162 322.977 38.159 322.303 36.719C321.647 35.2608 321.319 33.3742 321.319 31.0594V18.209H326.65V31.0594C326.65 32.8274 326.978 34.0942 327.634 34.8598C328.309 35.6071 329.439 35.9808 331.025 35.9808C332.264 35.9808 333.349 35.7438 334.278 35.2699C335.208 34.796 336.074 34.0122 336.876 32.9186C337.696 31.8249 338.525 30.3394 339.364 28.4619L344.012 30.5125C343.228 32.4446 342.417 34.076 341.578 35.4066C340.74 36.7372 339.81 37.8035 338.79 38.6055C337.787 39.4075 336.648 39.9908 335.372 40.3554C334.114 40.7199 332.665 40.9022 331.025 40.9022ZM365.748 40.6288C363.397 40.6288 361.346 40.246 359.596 39.4805C357.865 38.7331 356.516 37.6668 355.55 36.2815C354.602 34.878 354.128 33.2284 354.128 31.3328C354.128 30.1298 354.319 28.9996 354.702 27.9425C355.085 26.867 355.632 25.901 356.343 25.0443C357.072 24.1876 357.928 23.4949 358.913 22.9664L359.46 23.8413L348.332 24.0873V19.4393L371.845 18.8925V23.5405L368.318 23.6225C367.152 23.6408 366.049 23.823 365.01 24.1694C363.971 24.4975 363.05 24.9714 362.248 25.5911C361.465 26.2108 360.845 26.9582 360.389 27.8331C359.952 28.708 359.733 29.6923 359.733 30.7859C359.733 31.8796 359.961 32.8001 360.417 33.5474C360.89 34.2947 361.583 34.8689 362.494 35.2699C363.406 35.6527 364.509 35.8441 365.803 35.8441C366.295 35.8441 366.851 35.8167 367.471 35.762C368.109 35.7074 368.71 35.6253 369.275 35.516L369.849 40.2733C369.12 40.4009 368.409 40.4921 367.717 40.5468C367.024 40.6014 366.368 40.6288 365.748 40.6288ZM147.686 77.9958C146.556 77.449 145.489 76.7473 144.487 75.8906C143.484 75.0521 142.591 74.1225 141.807 73.1018C141.024 72.081 140.377 71.033 139.866 69.9575C139.374 68.8639 139.064 67.8067 138.937 66.7859L143.311 65.829C143.402 66.9409 143.73 68.0345 144.295 69.11C144.879 70.1671 145.708 71.1788 146.784 72.1448C147.877 73.1109 149.226 74.0131 150.83 74.8516L147.686 77.9958ZM126.906 77.9958L124.856 75.5351C127.335 74.7696 129.54 73.9585 131.472 73.1018C133.405 72.2451 134.981 71.4157 136.202 70.6137L138.39 72.2542C137.187 73.202 135.601 74.1863 133.632 75.207C131.682 76.2096 129.44 77.1392 126.906 77.9958ZM126.906 74.3048L124.993 71.9808C127.362 71.3246 129.413 70.6228 131.144 69.8755C132.894 69.1282 134.352 68.3717 135.519 67.6062L137.706 68.9732C136.54 69.8664 135.054 70.7687 133.25 71.68C131.463 72.5914 129.349 73.4663 126.906 74.3048ZM127.043 70.8871L125.129 68.5631C127.025 68.071 128.72 67.5606 130.215 67.032C131.709 66.5034 133.022 65.9657 134.152 65.4189L135.792 67.0594C134.662 67.7155 133.377 68.3626 131.937 69.0006C130.497 69.6385 128.866 70.2674 127.043 70.8871ZM137.706 78.1326C137.196 78.1326 136.576 78.1234 135.847 78.1052C135.136 78.087 134.207 78.0505 133.058 77.9958L132.922 74.5782C133.742 74.6329 134.398 74.6693 134.89 74.6876C135.382 74.7058 135.774 74.7149 136.066 74.7149C136.193 74.7149 136.284 74.7058 136.339 74.6876C136.394 74.6693 136.43 74.6329 136.449 74.5782C136.467 74.5053 136.476 74.4141 136.476 74.3048C136.476 73.7762 136.084 72.9924 135.3 71.9534C134.516 70.8962 133.313 69.675 131.691 68.2897L137.023 67.3328C137.661 67.8796 138.244 68.4993 138.773 69.192C139.319 69.8664 139.802 70.5681 140.222 71.2972C140.641 72.0263 140.96 72.7281 141.179 73.4025C141.416 74.0587 141.534 74.6329 141.534 75.125C141.534 75.8359 141.416 76.4101 141.179 76.8475C140.942 77.285 140.541 77.604 139.976 77.8045C139.429 78.0232 138.672 78.1326 137.706 78.1326ZM130.051 67.8796V65.4189H144.815V67.8796H130.051ZM124.719 67.6062V62.4114H150.146V67.6062H145.362V64.8721H129.504V67.6062H124.719ZM144.952 74.0314L142.081 71.1605C143.575 70.2127 145.034 69.0735 146.455 67.7429L149.873 70.0669C149.144 70.796 148.369 71.4978 147.549 72.1722C146.729 72.8466 145.863 73.4663 144.952 74.0314ZM127.863 61.8645V57.3532H147.002V61.8645H132.922V59.9506H141.944V59.2671H132.922V61.8645H127.863ZM124.719 56.8064V53.6622H150.146V56.8064H124.719ZM134.835 54.4824V52.1584H140.03V54.4824H134.835ZM163.544 78.2693V76.082H153.838V72.5276H163.544V71.5707H154.658V68.4264H163.68V67.3328H153.427V63.3683H163.68V62.2746H161.493V68.4264H156.708V62.2746H154.658V59.1304H158.896V52.5685H163.817V59.1304H168.465V58.0368H153.838V54.3457H168.465V52.5685H173.387V54.3457H178.445V58.0368H173.387V59.1304H177.624V62.2746H175.574V68.4264H170.789V62.2746H168.602V63.3683H178.855V67.3328H168.602V68.4264H177.624V71.5707H168.739V72.5276H178.445V76.082H168.739V78.2693H163.544ZM184.405 72.9651C185.863 72.4729 187.03 71.999 187.905 71.5433C188.78 71.0694 189.436 70.5044 189.873 69.8482C190.329 69.1737 190.63 68.3171 190.776 67.2781C190.94 66.2209 191.022 64.8721 191.022 63.2316V60.7709H196.216V63.2316C196.216 65.3277 196.052 67.1414 195.724 68.6725C195.396 70.2036 194.868 71.5069 194.139 72.5823C193.409 73.6577 192.443 74.56 191.24 75.2891C190.037 76.0364 188.552 76.6652 186.784 77.1756L184.405 72.9651ZM183.503 59.4038V54.8925H206.743V59.4038H183.503ZM195.67 65.829C197.401 64.8812 198.732 63.8058 199.661 62.6027C200.609 61.3815 201.147 60.0418 201.275 58.5836L206.743 59.4038C206.469 60.8438 205.95 62.2291 205.184 63.5597C204.437 64.8903 203.517 66.1024 202.423 67.1961C201.329 68.2715 200.126 69.1373 198.814 69.7935L195.67 65.829ZM211.254 63.505C213.059 63.2316 214.945 62.7668 216.914 62.1106C218.901 61.4544 220.86 60.6615 222.792 59.7319C224.742 58.7841 226.565 57.7451 228.26 56.615C229.974 55.4849 231.459 54.3183 232.717 53.1153L235.861 56.9431C234.749 58.0003 233.464 59.0302 232.006 60.0327C230.566 61.0169 229.017 61.9557 227.358 62.8488C225.718 63.742 224.022 64.5531 222.273 65.2822C220.541 66.0113 218.809 66.631 217.078 67.1414C215.346 67.6518 213.678 68.0345 212.074 68.2897L211.254 63.505ZM221.78 77.449V61.7278H227.385V77.449H221.78ZM242.833 72.6643C245.312 72.3544 247.18 71.6709 248.438 70.6137C249.714 69.5383 250.352 68.1257 250.352 66.3758H239.962V61.7278L264.569 61.7278V66.3758H255.82C255.82 68.4355 255.346 70.2492 254.399 71.8167C253.451 73.3843 252.093 74.642 250.325 75.5898C248.575 76.5377 246.488 77.1118 244.064 77.3123L242.833 72.6643ZM242.697 58.7203V54.0723L261.835 54.0723V58.7203L242.697 58.7203ZM270.721 72.801C271.888 69.6477 272.954 66.4943 273.92 63.341C274.886 60.1876 275.734 57.0525 276.463 53.9356L281.794 54.8925C281.084 58.0823 280.218 61.3359 279.197 64.6533C278.195 67.9525 277.055 71.2608 275.779 74.5782L270.721 72.801ZM268.261 71.434C271.778 71.2881 275.324 71.033 278.896 70.6684C282.469 70.2856 286.078 69.8117 289.723 69.2467L290.407 73.8947C286.579 74.4962 282.833 74.9792 279.17 75.3438C275.524 75.7083 271.933 75.9544 268.397 76.082L268.261 71.434ZM289.177 77.1756C288.721 75.8086 288.183 74.3686 287.563 72.8557C286.944 71.3246 286.288 69.8299 285.595 68.3717C284.92 66.8953 284.255 65.5465 283.599 64.3252L288.384 62.2746C289.076 63.5323 289.769 64.9085 290.462 66.4032C291.173 67.8796 291.838 69.3834 292.458 70.9145C293.096 72.4456 293.642 73.8947 294.098 75.2617L289.177 77.1756ZM311.186 71.1605C311.186 69.192 311.104 67.6882 310.94 66.6492C310.794 65.592 310.512 64.8721 310.093 64.4893C309.692 64.1065 309.099 63.9151 308.315 63.9151C307.495 63.9151 306.721 64.0974 305.991 64.4619C305.262 64.8083 304.533 65.3824 303.804 66.1844C303.093 66.9864 302.319 68.0528 301.48 69.3834L297.242 66.9227C298.172 65.6103 298.983 64.3981 299.676 63.2863C300.368 62.1562 300.979 61.0534 301.507 59.978C302.054 58.8843 302.556 57.7542 303.011 56.5877C303.467 55.4211 303.914 54.127 304.351 52.7052L309.546 53.5255C309.035 55.0201 308.498 56.4145 307.933 57.7087C307.386 58.9846 306.793 60.2058 306.156 61.3724L305.718 61.0443C306.356 60.8256 307.049 60.6615 307.796 60.5521C308.562 60.4246 309.272 60.3608 309.929 60.3608C311.46 60.3608 312.699 60.7253 313.647 61.4544C314.595 62.1835 315.287 63.341 315.725 64.9267C316.162 66.5125 316.381 68.5905 316.381 71.1605H311.186ZM311.596 77.3123C308.735 77.3123 306.493 76.8384 304.87 75.8906C303.266 74.961 302.464 73.6577 302.464 71.9808C302.464 70.8142 302.856 69.7115 303.64 68.6725C304.424 67.6153 305.572 66.6401 307.085 65.747C308.616 64.8538 310.494 64.0518 312.717 63.341C314.941 62.6301 317.484 62.0195 320.346 61.5091L321.084 65.7196C318.969 66.1024 317.083 66.5216 315.424 66.9773C313.765 67.433 312.353 67.9161 311.186 68.4264C310.038 68.9186 309.163 69.4198 308.562 69.9302C307.96 70.4406 307.659 70.96 307.659 71.4886C307.659 72.0172 307.987 72.4182 308.644 72.6917C309.318 72.9468 310.32 73.0744 311.651 73.0744C312.654 73.0744 313.838 73.0015 315.205 72.8557C316.573 72.6917 318.204 72.4547 320.1 72.1448L320.728 76.4647C319.762 76.6288 318.714 76.7746 317.584 76.9022C316.472 77.0298 315.388 77.13 314.331 77.203C313.292 77.2759 312.38 77.3123 311.596 77.3123ZM297.516 59.2671V55.1659H319.662V59.2671H297.516ZM336.696 75.5351C334.363 75.5351 332.358 75.1341 330.681 74.3321C329.022 73.5119 327.746 72.3362 326.853 70.8051C325.978 69.274 325.54 67.433 325.54 65.2822C325.54 63.1313 325.969 61.2995 326.825 59.7866C327.7 58.2555 328.949 57.0798 330.571 56.2596C332.193 55.4393 334.135 55.0292 336.395 55.0292C337.653 55.0292 338.819 55.1568 339.895 55.412C340.988 55.6672 341.973 56.05 342.847 56.5603L341.699 60.9349C341.025 60.5157 340.195 60.1785 339.211 59.9233C338.245 59.6681 337.306 59.5405 336.395 59.5405C335.283 59.5405 334.344 59.7593 333.579 60.1967C332.831 60.6342 332.257 61.2812 331.856 62.1379C331.473 62.9764 331.282 64.0245 331.282 65.2822C331.282 66.5581 331.483 67.6244 331.884 68.4811C332.285 69.3196 332.886 69.9575 333.688 70.395C334.49 70.8142 335.493 71.0238 336.696 71.0238C337.224 71.0238 337.68 70.9783 338.063 70.8871C338.464 70.796 338.874 70.6411 339.293 70.4223L338.664 71.68V67.5788H334.29V63.0675H344.132V73.8947C343.13 74.4233 341.982 74.8334 340.687 75.125C339.393 75.3984 338.063 75.5351 336.696 75.5351ZM348.527 75.2617V55.3026H363.018V59.6772H353.996V62.9035H362.471V67.114H353.996V70.8871H363.018V75.2617H348.527ZM372.352 75.2617V59.9506H366.693V55.3026H383.644V59.9506H377.985V75.2617H372.352ZM388.291 68.6998L387.471 55.3026H394.033L393.213 68.6998H388.291ZM388.018 75.2617V70.6137H393.486V75.2617H388.018Z" fill="white"/>
<defs>
<filter id="filter0_d_294_9549" x="0.171875" y="0" width="509.283" height="157.222" filterUnits="userSpaceOnUse" color-interpolation-filters="sRGB">
<feFlood flood-opacity="0" result="BackgroundImageFix"/>
<feColorMatrix in="SourceAlpha" type="matrix" values="0 0 0 0 0 0 0 0 0 0 0 0 0 0 0 0 0 0 127 0" result="hardAlpha"/>
<feOffset dy="19.37"/>
<feGaussianBlur stdDeviation="5"/>
<feComposite in2="hardAlpha" operator="out"/>
<feColorMatrix type="matrix" values="0 0 0 0 0.67234 0 0 0 0 0.579091 0 0 0 0 0.276029 0 0 0 0.5 0"/>
<feBlend mode="normal" in2="BackgroundImageFix" result="effect1_dropShadow_294_9549"/>
<feBlend mode="normal" in="SourceGraphic" in2="effect1_dropShadow_294_9549" result="shape"/>
</filter>
<linearGradient id="paint0_linear_294_9549" x1="381.717" y1="64.5397" x2="498.839" y2="72.7728" gradientUnits="userSpaceOnUse">
<stop stop-color="#A18834"/>
<stop offset="1" stop-color="#D3BD73"/>
</linearGradient>
<linearGradient id="paint1_linear_294_9549" x1="10.7336" y1="75.6932" x2="125.035" y2="55.9656" gradientUnits="userSpaceOnUse">
<stop stop-color="#CAB468"/>
<stop offset="1" stop-color="#967E2E"/>
</linearGradient>
<linearGradient id="paint2_linear_294_9549" x1="103.648" y1="-1.47281e-06" x2="458.556" y2="40.363" gradientUnits="userSpaceOnUse">
<stop stop-color="#A18834"/>
<stop offset="0.335" stop-color="#D5C691"/>
<stop offset="0.725" stop-color="#957D2D"/>
<stop offset="1" stop-color="#EFDB95"/>
</linearGradient>
</defs>
</svg>
