<svg width="59" height="81" viewBox="0 0 59 81" fill="none" xmlns="http://www.w3.org/2000/svg">
<g opacity="0.8">
<path d="M29.5 19.103L46.9369 2.24671C48.9892 0.261552 52.0307 -0.302899 54.6623 0.808727C57.2914 1.92522 59 4.50436 59 7.36085V50.3936C59 53.2843 57.8265 56.0524 55.7473 58.0647L34.449 78.6559C31.6897 81.3233 27.3102 81.3233 24.5535 78.6559L3.25273 58.0647C1.17352 56.0524 6.08961e-05 53.2843 6.08961e-05 50.3936V7.36085C6.08961e-05 4.50436 1.70865 1.92538 4.33774 0.808727C6.96935 -0.302899 10.0109 0.261552 12.0632 2.24671L29.5 19.103ZM10.0428 49.1543C10.0428 50.1187 10.433 51.0414 11.1278 51.7113L29.5 69.4756V33.071L26.0092 29.6944L13.0573 17.1742C12.5466 16.6785 11.7832 16.5361 11.1278 16.816C10.4698 17.0933 10.0428 17.7386 10.0428 18.4528V49.1543Z" fill="#CBE181"/>
<path d="M29.4838 72.1631V28.0555C29.4838 27.4891 29.2437 26.9493 28.8231 26.5701L9.15763 8.83895C7.871 7.67887 5.81836 8.59192 5.81836 10.3243V53.4648C5.81836 54.0127 6.04315 54.5366 6.44024 54.9142L26.1057 73.6125C27.3794 74.8236 29.4838 73.9207 29.4838 72.1631Z" fill="#F0ED8D"/>
</g>
</svg>
