<svg width="37" height="31" viewBox="0 0 37 31" fill="none" xmlns="http://www.w3.org/2000/svg">
<path d="M6.53186 17.9222V5.93848H3.05355C1.37229 5.93848 0 7.34045 0 9.05115V23.6119C0 25.3226 1.37229 26.7247 3.05355 26.7247H7.42816V29.9317C7.42816 30.1462 7.55686 30.3392 7.74984 30.4207C7.94288 30.5021 8.17015 30.4549 8.31593 30.3049L11.8328 26.7247H19.3469C21.0281 26.7247 22.4006 25.3226 22.4006 23.6119V23.6076H12.1545C9.05361 23.6076 6.53186 21.0564 6.53186 17.9222Z" fill="#F3F9FB"/>
<path d="M32.6487 -0.00976562H12.1546C10.2421 -0.00976562 8.67725 1.58356 8.67725 3.53075V17.922C8.67725 19.8694 10.2421 21.4627 12.1546 21.4627H23.7733L29.0897 26.8255C29.259 26.9977 29.5133 27.0492 29.7342 26.9561C29.9553 26.8628 30.0994 26.6433 30.0994 26.3998V21.4627H32.6488C34.5613 21.4627 36.1261 19.8693 36.1261 17.922V3.53075C36.126 1.58356 34.5612 -0.00976562 32.6487 -0.00976562ZM26.0472 16.9261H13.824V15.2111H26.0472V16.9261ZM30.9794 11.5667H13.824V9.85174H30.9794V11.5667ZM30.9794 6.20718H13.824V4.49218H30.9794V6.20718Z" fill="#F3F9FB"/>
</svg>
