<svg width="85" height="72" viewBox="0 0 85 72" fill="none" xmlns="http://www.w3.org/2000/svg">
<g opacity="0.6">
<path d="M15.208 41.9601V14.0586H7.10952C3.19507 14.0586 0 17.3228 0 21.3058V55.2072C0 59.1902 3.19507 62.4547 7.10952 62.4547H17.2948V69.9216C17.2948 70.421 17.5945 70.8703 18.0438 71.06C18.4933 71.2495 19.0224 71.1398 19.3618 70.7905L27.5501 62.4547H45.0449C48.9594 62.4547 52.1548 59.1902 52.1548 55.2072V55.1972H28.2991C21.0793 55.1972 15.208 49.2574 15.208 41.9601Z" fill="#A8DAE9"/>
<path d="M76.0154 0.210938H28.2993C23.8465 0.210938 20.2031 3.92065 20.2031 8.45426V41.9611C20.2031 46.4952 23.8465 50.2047 28.2993 50.2047H55.3509L67.729 62.6908C68.1231 63.0919 68.7153 63.2117 69.2297 62.995C69.7444 62.7779 70.08 62.2668 70.08 61.6998V50.2047H76.0156C80.4685 50.2047 84.1117 46.495 84.1117 41.9611V8.45426C84.1116 3.92065 80.4682 0.210938 76.0154 0.210938ZM60.6453 39.6425H32.1862V35.6493H60.6453V39.6425ZM72.1287 27.1641H32.1862V23.1713H72.1287V27.1641ZM72.1287 14.6857H32.1862V10.6927H72.1287V14.6857Z" fill="#A8DAE9"/>
</g>
</svg>
