<svg width="35" height="37" viewBox="0 0 35 37" fill="none" xmlns="http://www.w3.org/2000/svg">
<path d="M33.8703 9.8831C33.2406 9.02429 32.2671 8.48105 31.2042 8.39642L9.21716 6.65567L8.81745 4.392C8.45203 2.32505 6.80675 0.724456 4.72987 0.417357L4.33036 0.357757L1.9534 0.00523592C1.29121 -0.0919579 0.675023 0.364246 0.576806 1.02619C0.478378 1.68871 0.935666 2.30474 1.59785 2.40256V2.402L4.37482 2.81349L4.37545 2.81532C5.41887 2.96795 6.24708 3.77358 6.43088 4.81308L10.1943 26.1352C10.5475 28.1366 12.2862 29.5946 14.3192 29.5952H29.785C30.4546 29.5952 30.9969 29.0526 30.9969 28.3841C30.9969 27.715 30.4546 27.1723 29.785 27.1723H14.3192C13.4631 27.1729 12.7291 26.5569 12.5805 25.7143L12.054 22.7308H29.2944C31.0011 22.7308 32.4818 21.5535 32.865 19.891L34.4856 12.8714C34.7255 11.8337 34.5005 10.743 33.8703 9.8831Z" fill="#F3F9FB"/>
<path d="M15.2438 30.8936C13.8042 30.8936 12.6377 32.0611 12.6377 33.4996C12.6377 34.938 13.8042 36.1044 15.2438 36.1044C16.6832 36.1044 17.8505 34.938 17.8505 33.4996C17.8504 32.0611 16.6832 30.8936 15.2438 30.8936Z" fill="#F3F9FB"/>
<path d="M26.8234 30.8936C25.3835 30.8936 24.2173 32.0611 24.2173 33.4996C24.2173 34.938 25.3835 36.1044 26.8234 36.1044C28.2629 36.1044 29.4301 34.938 29.4301 33.4996C29.4301 32.0611 28.2629 30.8936 26.8234 30.8936Z" fill="#F3F9FB"/>
</svg>
