<svg width="283" height="88" viewBox="0 0 283 88" fill="none" xmlns="http://www.w3.org/2000/svg">
<mask id="path-1-outside-1_879_128" maskUnits="userSpaceOnUse" x="2" y="14" width="279" height="69" fill="black">
<rect fill="white" x="2" y="14" width="279" height="69"/>
<path d="M11.9833 62V23.31H25.3393C31.24 23.31 35.6036 24.3347 38.4303 26.384C41.2923 28.4333 42.7233 31.5603 42.7233 35.765C42.7233 39.899 41.416 43.0613 38.8013 45.252C36.222 47.4427 32.459 48.538 27.5123 48.538H17.2833V40.8H25.8693C27.954 40.8 29.4733 40.4467 30.4273 39.74C31.3813 38.998 31.8583 37.8497 31.8583 36.295C31.8583 34.7403 31.3813 33.6097 30.4273 32.903C29.4733 32.161 27.954 31.79 25.8693 31.79H22.5833V62H11.9833ZM33.7133 62L19.9863 44.669H31.2223L45.3733 62H33.7133ZM63.1991 62.53C60.6198 62.53 58.5528 61.7703 56.9981 60.251C55.4788 58.6963 54.7191 56.6293 54.7191 54.05C54.7191 51.0113 55.9205 48.6617 58.3231 47.001C60.7258 45.3403 64.1178 44.51 68.4991 44.51H71.3611C71.3611 43.6267 71.2728 42.9553 71.0961 42.496C70.9548 42.0367 70.6545 41.7363 70.1951 41.595C69.7358 41.4183 69.0645 41.33 68.1811 41.33C66.4498 41.33 64.5595 41.5067 62.5101 41.86C60.4608 42.2133 58.5705 42.6903 56.8391 43.291L55.7791 35.871C57.6871 35.235 59.8601 34.758 62.2981 34.44C64.7361 34.0867 67.1741 33.91 69.6121 33.91C72.5801 33.91 74.9475 34.2633 76.7141 34.97C78.4808 35.6413 79.7528 36.7543 80.5301 38.309C81.3428 39.8637 81.7491 41.9307 81.7491 44.51V62H71.8911L71.7851 58.82H71.6791C70.6545 59.986 69.4001 60.9047 67.9161 61.576C66.4321 62.212 64.8598 62.53 63.1991 62.53ZM67.2271 55.375C68.0751 55.375 68.7995 55.2513 69.4001 55.004C70.0361 54.7213 70.5131 54.3503 70.8311 53.891C71.1845 53.3963 71.3611 52.831 71.3611 52.195V50.075H70.0891C68.0045 50.075 66.4675 50.3047 65.4781 50.764C64.5241 51.2233 64.0471 51.9653 64.0471 52.99C64.0471 53.7673 64.3121 54.368 64.8421 54.792C65.4075 55.1807 66.2025 55.375 67.2271 55.375ZM94.8505 62V34.44H104.708L104.814 37.62H104.92C106.157 36.3127 107.464 35.3763 108.842 34.811C110.22 34.2103 111.828 33.91 113.665 33.91C116.881 33.91 119.23 34.7933 120.714 36.56C122.198 38.3267 122.94 41.1533 122.94 45.04V62H112.552V47.16C112.552 45.4287 112.305 44.2097 111.81 43.503C111.351 42.761 110.556 42.39 109.425 42.39C108.613 42.39 107.888 42.549 107.252 42.867C106.616 43.185 106.122 43.6267 105.768 44.192C105.415 44.722 105.238 45.358 105.238 46.1V62H94.8505ZM136.029 62V23.31H146.417V44.775H146.523L153.519 34.44H165.444L155.109 47.69L165.709 62H153.784L146.523 50.605H146.417V62H136.029ZM177.369 31.79V23.31H187.969V31.79H177.369ZM177.369 62V35.5H187.969V62H177.369ZM201.927 62V34.44H211.785L211.891 37.62H211.997C213.234 36.3127 214.541 35.3763 215.919 34.811C217.297 34.2103 218.905 33.91 220.742 33.91C223.957 33.91 226.307 34.7933 227.791 36.56C229.275 38.3267 230.017 41.1533 230.017 45.04V62H219.629V47.16C219.629 45.4287 219.382 44.2097 218.887 43.503C218.428 42.761 217.633 42.39 216.502 42.39C215.689 42.39 214.965 42.549 214.329 42.867C213.693 43.185 213.198 43.6267 212.845 44.192C212.492 44.722 212.315 45.358 212.315 46.1V62H201.927ZM255.349 73.66C253.017 73.66 250.773 73.448 248.618 73.024C246.462 72.6 244.713 72.0347 243.371 71.328L244.431 63.908C245.773 64.5793 247.363 65.127 249.201 65.551C251.038 66.0103 252.752 66.24 254.342 66.24C256.744 66.24 258.44 65.6393 259.43 64.438C260.454 63.2367 260.967 61.1873 260.967 58.29V57.442H260.861C259.553 58.714 258.281 59.615 257.045 60.145C255.843 60.675 254.412 60.94 252.752 60.94C249.183 60.94 246.445 59.7917 244.537 57.495C242.629 55.163 241.675 51.8063 241.675 47.425C241.675 43.0437 242.629 39.7047 244.537 37.408C246.445 35.076 249.183 33.91 252.752 33.91C254.412 33.91 255.914 34.1927 257.257 34.758C258.635 35.288 259.977 36.1713 261.285 37.408H261.391L261.497 34.44H271.355V58.29C271.355 63.4133 270.012 67.247 267.327 69.791C264.677 72.3703 260.684 73.66 255.349 73.66ZM256.515 52.99C257.398 52.99 258.158 52.831 258.794 52.513C259.465 52.195 259.995 51.7533 260.384 51.188C260.772 50.6227 260.967 49.9867 260.967 49.28V45.57C260.967 44.828 260.772 44.192 260.384 43.662C259.995 43.0967 259.465 42.655 258.794 42.337C258.158 42.019 257.398 41.86 256.515 41.86C255.031 41.86 253.882 42.3547 253.07 43.344C252.257 44.298 251.851 45.6583 251.851 47.425C251.851 49.1917 252.257 50.5697 253.07 51.559C253.882 52.513 255.031 52.99 256.515 52.99Z"/>
</mask>
<path d="M11.9833 62V23.31H25.3393C31.24 23.31 35.6036 24.3347 38.4303 26.384C41.2923 28.4333 42.7233 31.5603 42.7233 35.765C42.7233 39.899 41.416 43.0613 38.8013 45.252C36.222 47.4427 32.459 48.538 27.5123 48.538H17.2833V40.8H25.8693C27.954 40.8 29.4733 40.4467 30.4273 39.74C31.3813 38.998 31.8583 37.8497 31.8583 36.295C31.8583 34.7403 31.3813 33.6097 30.4273 32.903C29.4733 32.161 27.954 31.79 25.8693 31.79H22.5833V62H11.9833ZM33.7133 62L19.9863 44.669H31.2223L45.3733 62H33.7133ZM63.1991 62.53C60.6198 62.53 58.5528 61.7703 56.9981 60.251C55.4788 58.6963 54.7191 56.6293 54.7191 54.05C54.7191 51.0113 55.9205 48.6617 58.3231 47.001C60.7258 45.3403 64.1178 44.51 68.4991 44.51H71.3611C71.3611 43.6267 71.2728 42.9553 71.0961 42.496C70.9548 42.0367 70.6545 41.7363 70.1951 41.595C69.7358 41.4183 69.0645 41.33 68.1811 41.33C66.4498 41.33 64.5595 41.5067 62.5101 41.86C60.4608 42.2133 58.5705 42.6903 56.8391 43.291L55.7791 35.871C57.6871 35.235 59.8601 34.758 62.2981 34.44C64.7361 34.0867 67.1741 33.91 69.6121 33.91C72.5801 33.91 74.9475 34.2633 76.7141 34.97C78.4808 35.6413 79.7528 36.7543 80.5301 38.309C81.3428 39.8637 81.7491 41.9307 81.7491 44.51V62H71.8911L71.7851 58.82H71.6791C70.6545 59.986 69.4001 60.9047 67.9161 61.576C66.4321 62.212 64.8598 62.53 63.1991 62.53ZM67.2271 55.375C68.0751 55.375 68.7995 55.2513 69.4001 55.004C70.0361 54.7213 70.5131 54.3503 70.8311 53.891C71.1845 53.3963 71.3611 52.831 71.3611 52.195V50.075H70.0891C68.0045 50.075 66.4675 50.3047 65.4781 50.764C64.5241 51.2233 64.0471 51.9653 64.0471 52.99C64.0471 53.7673 64.3121 54.368 64.8421 54.792C65.4075 55.1807 66.2025 55.375 67.2271 55.375ZM94.8505 62V34.44H104.708L104.814 37.62H104.92C106.157 36.3127 107.464 35.3763 108.842 34.811C110.22 34.2103 111.828 33.91 113.665 33.91C116.881 33.91 119.23 34.7933 120.714 36.56C122.198 38.3267 122.94 41.1533 122.94 45.04V62H112.552V47.16C112.552 45.4287 112.305 44.2097 111.81 43.503C111.351 42.761 110.556 42.39 109.425 42.39C108.613 42.39 107.888 42.549 107.252 42.867C106.616 43.185 106.122 43.6267 105.768 44.192C105.415 44.722 105.238 45.358 105.238 46.1V62H94.8505ZM136.029 62V23.31H146.417V44.775H146.523L153.519 34.44H165.444L155.109 47.69L165.709 62H153.784L146.523 50.605H146.417V62H136.029ZM177.369 31.79V23.31H187.969V31.79H177.369ZM177.369 62V35.5H187.969V62H177.369ZM201.927 62V34.44H211.785L211.891 37.62H211.997C213.234 36.3127 214.541 35.3763 215.919 34.811C217.297 34.2103 218.905 33.91 220.742 33.91C223.957 33.91 226.307 34.7933 227.791 36.56C229.275 38.3267 230.017 41.1533 230.017 45.04V62H219.629V47.16C219.629 45.4287 219.382 44.2097 218.887 43.503C218.428 42.761 217.633 42.39 216.502 42.39C215.689 42.39 214.965 42.549 214.329 42.867C213.693 43.185 213.198 43.6267 212.845 44.192C212.492 44.722 212.315 45.358 212.315 46.1V62H201.927ZM255.349 73.66C253.017 73.66 250.773 73.448 248.618 73.024C246.462 72.6 244.713 72.0347 243.371 71.328L244.431 63.908C245.773 64.5793 247.363 65.127 249.201 65.551C251.038 66.0103 252.752 66.24 254.342 66.24C256.744 66.24 258.44 65.6393 259.43 64.438C260.454 63.2367 260.967 61.1873 260.967 58.29V57.442H260.861C259.553 58.714 258.281 59.615 257.045 60.145C255.843 60.675 254.412 60.94 252.752 60.94C249.183 60.94 246.445 59.7917 244.537 57.495C242.629 55.163 241.675 51.8063 241.675 47.425C241.675 43.0437 242.629 39.7047 244.537 37.408C246.445 35.076 249.183 33.91 252.752 33.91C254.412 33.91 255.914 34.1927 257.257 34.758C258.635 35.288 259.977 36.1713 261.285 37.408H261.391L261.497 34.44H271.355V58.29C271.355 63.4133 270.012 67.247 267.327 69.791C264.677 72.3703 260.684 73.66 255.349 73.66ZM256.515 52.99C257.398 52.99 258.158 52.831 258.794 52.513C259.465 52.195 259.995 51.7533 260.384 51.188C260.772 50.6227 260.967 49.9867 260.967 49.28V45.57C260.967 44.828 260.772 44.192 260.384 43.662C259.995 43.0967 259.465 42.655 258.794 42.337C258.158 42.019 257.398 41.86 256.515 41.86C255.031 41.86 253.882 42.3547 253.07 43.344C252.257 44.298 251.851 45.6583 251.851 47.425C251.851 49.1917 252.257 50.5697 253.07 51.559C253.882 52.513 255.031 52.99 256.515 52.99Z" fill="#F8F7F8"/>
<path d="M11.9833 62H2.98331C2.98331 66.9706 7.01275 71 11.9833 71L11.9833 62ZM11.9833 23.31V14.31C7.01275 14.31 2.98331 18.3394 2.98331 23.31H11.9833ZM38.4303 26.384L33.1476 33.6705C33.1619 33.6809 33.1763 33.6912 33.1906 33.7015L38.4303 26.384ZM38.8013 45.252L33.0213 38.3533C33.0059 38.3662 32.9905 38.3792 32.9752 38.3922L38.8013 45.252ZM17.2833 48.538H8.28331C8.28331 53.5086 12.3128 57.538 17.2833 57.538V48.538ZM17.2833 40.8V31.8C12.3128 31.8 8.28331 35.8294 8.28331 40.8H17.2833ZM30.4273 39.74L35.7844 46.972C35.841 46.9301 35.8971 46.8874 35.9528 46.8442L30.4273 39.74ZM30.4273 32.903L24.9018 40.0072C24.9575 40.0504 25.0136 40.0931 25.0703 40.135L30.4273 32.903ZM22.5833 31.79V22.79C17.6128 22.79 13.5833 26.8194 13.5833 31.79L22.5833 31.79ZM22.5833 62V71C27.5539 71 31.5833 66.9706 31.5833 62H22.5833ZM33.7133 62L26.6582 67.588C28.3653 69.7433 30.9639 71 33.7133 71V62ZM19.9863 44.669V35.669C16.5346 35.669 13.3869 37.6432 11.8841 40.7506C10.3813 43.858 10.7881 47.5512 12.9312 50.257L19.9863 44.669ZM31.2223 44.669L38.1936 38.9768C36.4844 36.8835 33.9249 35.669 31.2223 35.669V44.669ZM45.3733 62V71C48.8492 71 52.0144 68.9984 53.5044 65.8581C54.9945 62.7178 54.543 59.0002 52.3446 56.3078L45.3733 62ZM20.9833 62V23.31H2.98331V62H20.9833ZM11.9833 32.31H25.3393V14.31H11.9833V32.31ZM25.3393 32.31C30.5225 32.31 32.5957 33.2703 33.1476 33.6705L43.713 19.0975C38.6116 15.399 31.9575 14.31 25.3393 14.31V32.31ZM33.1906 33.7015C33.3771 33.835 33.4198 33.9098 33.4663 34.0114C33.538 34.168 33.7233 34.6736 33.7233 35.765H51.7233C51.7233 29.2985 49.3691 23.1474 43.67 19.0665L33.1906 33.7015ZM33.7233 35.765C33.7233 37.8563 33.1632 38.2344 33.0213 38.3533L44.5813 52.1507C49.6687 47.8882 51.7233 41.9417 51.7233 35.765H33.7233ZM32.9752 38.3922C32.6298 38.6856 31.2857 39.538 27.5123 39.538V57.538C33.6323 57.538 39.8142 56.1997 44.6274 52.1118L32.9752 38.3922ZM27.5123 39.538H17.2833V57.538H27.5123V39.538ZM26.2833 48.538V40.8H8.28331V48.538H26.2833ZM17.2833 49.8H25.8693V31.8H17.2833V49.8ZM25.8693 49.8C28.5878 49.8 32.4901 49.4122 35.7844 46.972L25.0703 32.508C25.841 31.9371 26.4524 31.7878 26.5337 31.7689C26.6228 31.7482 26.4393 31.8 25.8693 31.8V49.8ZM35.9528 46.8442C39.7034 43.927 40.8583 39.7592 40.8583 36.295H22.8583C22.8583 36.1738 22.8748 35.6265 23.1891 34.8698C23.5298 34.0496 24.1135 33.249 24.9019 32.6358L35.9528 46.8442ZM40.8583 36.295C40.8583 32.8542 39.7084 28.5777 35.7844 25.671L25.0703 40.135C24.2073 39.4958 23.5742 38.6466 23.2083 37.7793C22.8731 36.9847 22.8583 36.4107 22.8583 36.295H40.8583ZM35.9528 25.7988C32.6295 23.2141 28.6491 22.79 25.8693 22.79V40.79C26.4146 40.79 26.5637 40.8422 26.4374 40.8114C26.3117 40.7807 25.6753 40.6088 24.9018 40.0072L35.9528 25.7988ZM25.8693 22.79H22.5833V40.79H25.8693V22.79ZM13.5833 31.79V62H31.5833V31.79H13.5833ZM22.5833 53H11.9833V71H22.5833V53ZM40.7684 56.412L27.0414 39.081L12.9312 50.257L26.6582 67.588L40.7684 56.412ZM19.9863 53.669H31.2223V35.669H19.9863V53.669ZM24.251 50.3612L38.402 67.6922L52.3446 56.3078L38.1936 38.9768L24.251 50.3612ZM45.3733 53H33.7133V71H45.3733V53ZM56.9981 60.251L50.5614 66.5414C50.6096 66.5907 50.6584 66.6395 50.7077 66.6877L56.9981 60.251ZM58.3231 47.001L53.2059 39.5974L53.2059 39.5974L58.3231 47.001ZM71.3611 44.51V53.51C76.3317 53.51 80.3611 49.4806 80.3611 44.51H71.3611ZM71.0961 42.496L62.4941 45.1428C62.5547 45.3397 62.622 45.5345 62.696 45.7268L71.0961 42.496ZM70.1951 41.595L66.9643 49.9951C67.1566 50.0691 67.3514 50.1364 67.5483 50.197L70.1951 41.595ZM62.5101 41.86L60.981 32.9909L60.981 32.9909L62.5101 41.86ZM56.8391 43.291L47.9296 44.5638C48.3097 47.2247 49.8593 49.5764 52.1543 50.9756C54.4494 52.3747 57.2496 52.6748 59.7891 51.7938L56.8391 43.291ZM55.7791 35.871L52.9331 27.3328C48.8067 28.7083 46.2545 32.8379 46.8696 37.1438L55.7791 35.871ZM62.2981 34.44L63.4622 43.3644C63.5045 43.3589 63.5468 43.3531 63.589 43.3469L62.2981 34.44ZM76.7141 34.97L73.3716 43.3263C73.42 43.3456 73.4685 43.3645 73.5172 43.383L76.7141 34.97ZM80.5301 38.309L72.4803 42.3339C72.5044 42.3823 72.5291 42.4304 72.5541 42.4783L80.5301 38.309ZM81.7491 62V71C86.7197 71 90.7491 66.9706 90.7491 62H81.7491ZM71.8911 62L62.8961 62.2998C63.0578 67.151 67.0373 71 71.8911 71V62ZM71.7851 58.82L80.7801 58.5202C80.6184 53.669 76.639 49.82 71.7851 49.82V58.82ZM71.6791 58.82V49.82C69.0906 49.82 66.6274 50.9345 64.9186 52.879L71.6791 58.82ZM67.9161 61.576L71.4614 69.8483C71.5164 69.8247 71.5711 69.8006 71.6256 69.776L67.9161 61.576ZM69.4001 55.004L72.8269 63.3261C72.9035 63.2946 72.9797 63.262 73.0554 63.2283L69.4001 55.004ZM70.8311 53.891L63.5075 48.6598C63.4819 48.6957 63.4565 48.7318 63.4314 48.7681L70.8311 53.891ZM71.3611 50.075H80.3611C80.3611 45.1044 76.3317 41.075 71.3611 41.075V50.075ZM65.4781 50.764L61.6881 42.6009C61.6499 42.6187 61.6118 42.6367 61.5738 42.655L65.4781 50.764ZM64.8421 54.792L59.2199 61.8198C59.3896 61.9556 59.5642 62.0852 59.7434 62.2084L64.8421 54.792ZM63.1991 53.53C62.791 53.53 62.704 53.4704 62.819 53.5127C62.8753 53.5334 62.9585 53.5709 63.0535 53.6307C63.1488 53.6907 63.2287 53.7559 63.2885 53.8143L50.7077 66.6877C54.2522 70.1516 58.7381 71.53 63.1991 71.53V53.53ZM63.4348 53.9606C63.4933 54.0204 63.5584 54.1003 63.6184 54.1956C63.6782 54.2906 63.7157 54.3738 63.7364 54.4301C63.7787 54.5451 63.7191 54.4581 63.7191 54.05H45.7191C45.7191 58.511 47.0975 62.997 50.5614 66.5414L63.4348 53.9606ZM63.7191 54.05C63.7191 53.8837 63.7354 53.8284 63.7287 53.8587C63.7209 53.8935 63.6951 53.9853 63.6335 54.1058C63.5714 54.2273 63.4996 54.3256 63.4404 54.3915C63.3841 54.4542 63.37 54.4533 63.4403 54.4046L53.2059 39.5974C48.2572 43.0178 45.7191 48.1976 45.7191 54.05H63.7191ZM63.4403 54.4046C63.7594 54.1842 65.085 53.51 68.4991 53.51V35.51C63.1506 35.51 57.6922 36.4965 53.2059 39.5974L63.4403 54.4046ZM68.4991 53.51H71.3611V35.51H68.4991V53.51ZM80.3611 44.51C80.3611 43.2571 80.2677 41.2709 79.4962 39.2652L62.696 45.7268C62.4545 45.0989 62.3883 44.6434 62.3718 44.5181C62.352 44.3681 62.3611 44.35 62.3611 44.51H80.3611ZM79.6981 39.8492C78.6803 36.5412 76.1499 34.0108 72.8419 32.993L67.5483 50.197C66.5616 49.8934 65.4186 49.3079 64.4009 48.2902C63.3833 47.2726 62.7977 46.1295 62.4941 45.1428L79.6981 39.8492ZM73.4259 33.1949C71.4202 32.4235 69.434 32.33 68.1811 32.33V50.33C68.3411 50.33 68.323 50.3391 68.173 50.3193C68.0477 50.3028 67.5923 50.2366 66.9643 49.9951L73.4259 33.1949ZM68.1811 32.33C65.8474 32.33 63.4383 32.5672 60.981 32.9909L64.0393 50.7291C65.6806 50.4462 67.0522 50.33 68.1811 50.33V32.33ZM60.981 32.9909C58.512 33.4165 56.1402 34.0072 53.8892 34.7882L59.7891 51.7938C61.0007 51.3735 62.4095 51.0101 64.0393 50.7291L60.981 32.9909ZM65.7487 42.0182L64.6887 34.5982L46.8696 37.1438L47.9296 44.5638L65.7487 42.0182ZM58.6252 44.4091C59.8814 43.9904 61.4749 43.6236 63.4622 43.3644L61.1341 25.5156C58.2453 25.8924 55.4928 26.4796 52.9331 27.3328L58.6252 44.4091ZM63.589 43.3469C65.604 43.0549 67.6106 42.91 69.6121 42.91V24.91C66.7377 24.91 63.8683 25.1184 61.0073 25.5331L63.589 43.3469ZM69.6121 42.91C72.0056 42.91 73.0933 43.215 73.3716 43.3263L80.0566 26.6137C76.8016 25.3117 73.1546 24.91 69.6121 24.91V42.91ZM73.5172 43.383C73.5179 43.3833 73.3252 43.3077 73.0666 43.0814C72.7979 42.8464 72.5991 42.5715 72.4803 42.3339L88.58 34.2841C86.7007 30.5256 83.588 27.9542 79.9111 26.5569L73.5172 43.383ZM72.5541 42.4783C72.4893 42.3543 72.5446 42.4114 72.6134 42.7613C72.6825 43.1126 72.7491 43.6787 72.7491 44.51H90.7491C90.7491 41.1107 90.2334 37.444 88.5061 34.1397L72.5541 42.4783ZM72.7491 44.51V62H90.7491V44.51H72.7491ZM81.7491 53H71.8911V71H81.7491V53ZM80.8861 61.7002L80.7801 58.5202L62.7901 59.1198L62.8961 62.2998L80.8861 61.7002ZM71.7851 49.82H71.6791V67.82H71.7851V49.82ZM64.9186 52.879C64.7803 53.0363 64.5833 53.2056 64.2066 53.376L71.6256 69.776C74.2169 68.6037 76.5286 66.9357 78.4396 64.761L64.9186 52.879ZM64.3708 53.3037C64.0395 53.4457 63.6766 53.53 63.1991 53.53V71.53C66.043 71.53 68.8248 70.9783 71.4614 69.8483L64.3708 53.3037ZM67.2271 64.375C68.909 64.375 70.8625 64.135 72.8269 63.3261L65.9734 46.6819C66.3622 46.5218 66.6821 46.4464 66.8917 46.4106C67.0993 46.3752 67.2191 46.375 67.2271 46.375V64.375ZM73.0554 63.2283C74.8318 62.4388 76.7671 61.1283 78.2309 59.0139L63.4314 48.7681C64.2592 47.5724 65.2405 47.0039 65.7449 46.7797L73.0554 63.2283ZM78.1547 59.1222C79.6508 57.0277 80.3611 54.6146 80.3611 52.195H62.3611C62.3611 51.0474 62.7181 49.765 63.5075 48.6598L78.1547 59.1222ZM80.3611 52.195V50.075H62.3611V52.195H80.3611ZM71.3611 41.075H70.0891V59.075H71.3611V41.075ZM70.0891 41.075C67.6751 41.075 64.5133 41.2892 61.6881 42.6009L69.2681 58.9271C68.9768 59.0623 68.7695 59.124 68.6909 59.1454C68.6092 59.1677 68.6061 59.1629 68.7029 59.1484C68.9116 59.1172 69.3521 59.075 70.0891 59.075V41.075ZM61.5738 42.655C59.9008 43.4605 58.1374 44.771 56.8343 46.7982C55.5196 48.8432 55.0471 51.0368 55.0471 52.99H73.0471C73.0471 53.9186 72.8131 55.2288 71.9755 56.5318C71.1493 57.817 70.1015 58.5268 69.3825 58.873L61.5738 42.655ZM55.0471 52.99C55.0471 56.0536 56.2282 59.4265 59.2199 61.8198L70.4644 47.7642C71.291 48.4254 72.0077 49.32 72.4801 50.3907C72.9368 51.4258 73.0471 52.3546 73.0471 52.99H55.0471ZM59.7434 62.2084C62.3815 64.0221 65.2291 64.375 67.2271 64.375V46.375C67.2629 46.375 67.5481 46.3763 67.9994 46.4867C68.4619 46.5997 69.1699 46.8456 69.9409 47.3756L59.7434 62.2084ZM94.8505 62H85.8505C85.8505 66.9706 89.8799 71 94.8505 71V62ZM94.8505 34.44V25.44C89.8799 25.44 85.8505 29.4694 85.8505 34.44H94.8505ZM104.708 34.44L113.703 34.1402C113.542 29.289 109.562 25.44 104.708 25.44V34.44ZM104.814 37.62L95.8195 37.9198C95.9812 42.771 99.9606 46.62 104.814 46.62V37.62ZM104.92 37.62V46.62C107.394 46.62 109.759 45.6018 111.459 43.8048L104.92 37.62ZM108.842 34.811L112.258 43.1375C112.319 43.1128 112.379 43.0873 112.439 43.0613L108.842 34.811ZM120.714 36.56L127.606 30.7713L127.606 30.7713L120.714 36.56ZM122.94 62V71C127.911 71 131.94 66.9706 131.94 62H122.94ZM112.552 62H103.552C103.552 66.9706 107.582 71 112.552 71V62ZM111.81 43.503L104.158 48.2402C104.247 48.3841 104.34 48.5255 104.437 48.6642L111.81 43.503ZM107.252 42.867L103.228 34.8171L103.228 34.8172L107.252 42.867ZM105.768 44.192L113.257 49.1843C113.306 49.1109 113.354 49.0368 113.4 48.962L105.768 44.192ZM105.238 62V71C110.209 71 114.238 66.9706 114.238 62H105.238ZM103.85 62V34.44H85.8505V62H103.85ZM94.8505 43.44H104.708V25.44H94.8505V43.44ZM95.7135 34.7398L95.8195 37.9198L113.809 37.3202L113.703 34.1402L95.7135 34.7398ZM104.814 46.62H104.92V28.62H104.814V46.62ZM111.459 43.8048C111.997 43.2353 112.281 43.1284 112.258 43.1375L105.426 26.4845C102.648 27.6243 100.317 29.39 98.3823 31.4352L111.459 43.8048ZM112.439 43.0613C112.46 43.0521 112.797 42.91 113.665 42.91V24.91C110.859 24.91 107.981 25.3686 105.246 26.5607L112.439 43.0613ZM113.665 42.91C114.062 42.91 114.335 42.9375 114.504 42.9643C114.671 42.991 114.717 43.0137 114.672 42.9969C114.623 42.9783 114.493 42.9226 114.322 42.804C114.147 42.6832 113.974 42.5282 113.823 42.3487L127.606 30.7713C123.815 26.258 118.445 24.91 113.665 24.91V42.91ZM113.823 42.3487C113.512 41.9785 113.559 41.8317 113.679 42.2901C113.802 42.7588 113.94 43.6311 113.94 45.04H131.94C131.94 40.3673 131.115 34.9488 127.606 30.7713L113.823 42.3487ZM113.94 45.04V62H131.94V45.04H113.94ZM122.94 53H112.552V71H122.94V53ZM121.552 62V47.16H103.552V62H121.552ZM121.552 47.16C121.552 45.1237 121.368 41.4627 119.184 38.3418L104.437 48.6642C104.07 48.1399 103.857 47.6767 103.737 47.365C103.617 47.0524 103.565 46.8285 103.547 46.7369C103.515 46.5788 103.552 46.6807 103.552 47.16H121.552ZM119.463 38.7658C116.879 34.5917 112.627 33.39 109.425 33.39V51.39C109.041 51.39 108.15 51.3308 107.064 50.8239C105.883 50.2727 104.856 49.3672 104.158 48.2402L119.463 38.7658ZM109.425 33.39C107.416 33.39 105.281 33.7904 103.228 34.8171L111.277 50.9168C110.496 51.3076 109.809 51.39 109.425 51.39V33.39ZM103.228 34.8172C101.213 35.8244 99.4265 37.358 98.1365 39.422L113.4 48.962C112.817 49.8953 112.02 50.5456 111.277 50.9168L103.228 34.8172ZM98.28 39.1997C96.7869 41.4394 96.2385 43.8812 96.2385 46.1H114.238C114.238 46.8348 114.043 48.0046 113.257 49.1843L98.28 39.1997ZM96.2385 46.1V62H114.238V46.1H96.2385ZM105.238 53H94.8505V71H105.238V53ZM136.029 62H127.029C127.029 66.9706 131.058 71 136.029 71V62ZM136.029 23.31V14.31C131.058 14.31 127.029 18.3394 127.029 23.31H136.029ZM146.417 23.31H155.417C155.417 18.3394 151.388 14.31 146.417 14.31V23.31ZM146.417 44.775H137.417C137.417 49.7456 141.446 53.775 146.417 53.775V44.775ZM146.523 44.775V53.775C149.51 53.775 152.302 52.2934 153.976 49.8201L146.523 44.775ZM153.519 34.44V25.44C150.532 25.44 147.74 26.9216 146.066 29.3949L153.519 34.44ZM165.444 34.44L172.541 39.9753C174.656 37.2631 175.041 33.5824 173.532 30.4914C172.022 27.4005 168.884 25.44 165.444 25.44V34.44ZM155.109 47.69L148.012 42.1547C145.526 45.3429 145.47 49.798 147.877 53.047L155.109 47.69ZM165.709 62V71C169.108 71 172.218 69.0848 173.747 66.0489C175.276 63.013 174.964 59.3745 172.941 56.643L165.709 62ZM153.784 62L146.194 66.8364C147.846 69.4299 150.709 71 153.784 71V62ZM146.523 50.605L154.113 45.7686C152.46 43.1751 149.598 41.605 146.523 41.605V50.605ZM146.417 50.605V41.605C141.446 41.605 137.417 45.6344 137.417 50.605H146.417ZM146.417 62V71C151.388 71 155.417 66.9706 155.417 62H146.417ZM145.029 62V23.31H127.029V62H145.029ZM136.029 32.31H146.417V14.31H136.029V32.31ZM137.417 23.31V44.775H155.417V23.31H137.417ZM146.417 53.775H146.523V35.775H146.417V53.775ZM153.976 49.8201L160.972 39.4851L146.066 29.3949L139.07 39.7299L153.976 49.8201ZM153.519 43.44H165.444V25.44H153.519V43.44ZM158.347 28.9047L148.012 42.1547L162.206 53.2253L172.541 39.9753L158.347 28.9047ZM147.877 53.047L158.477 67.357L172.941 56.643L162.341 42.333L147.877 53.047ZM165.709 53H153.784V71H165.709V53ZM161.374 57.1636L154.113 45.7686L138.933 55.4414L146.194 66.8364L161.374 57.1636ZM146.523 41.605H146.417V59.605H146.523V41.605ZM137.417 50.605V62H155.417V50.605H137.417ZM146.417 53H136.029V71H146.417V53ZM177.369 31.79H168.369C168.369 36.7606 172.398 40.79 177.369 40.79V31.79ZM177.369 23.31V14.31C172.398 14.31 168.369 18.3394 168.369 23.31H177.369ZM187.969 23.31H196.969C196.969 18.3394 192.94 14.31 187.969 14.31V23.31ZM187.969 31.79V40.79C192.94 40.79 196.969 36.7606 196.969 31.79L187.969 31.79ZM177.369 62H168.369C168.369 66.9706 172.398 71 177.369 71V62ZM177.369 35.5V26.5C172.398 26.5 168.369 30.5294 168.369 35.5H177.369ZM187.969 35.5H196.969C196.969 30.5294 192.94 26.5 187.969 26.5V35.5ZM187.969 62V71C192.94 71 196.969 66.9706 196.969 62H187.969ZM186.369 31.79V23.31H168.369V31.79H186.369ZM177.369 32.31H187.969V14.31H177.369V32.31ZM178.969 23.31V31.79H196.969V23.31H178.969ZM187.969 22.79H177.369V40.79H187.969V22.79ZM186.369 62V35.5H168.369V62H186.369ZM177.369 44.5H187.969V26.5H177.369V44.5ZM178.969 35.5V62H196.969V35.5H178.969ZM187.969 53H177.369V71H187.969V53ZM201.927 62H192.927C192.927 66.9706 196.956 71 201.927 71V62ZM201.927 34.44V25.44C196.956 25.44 192.927 29.4694 192.927 34.44H201.927ZM211.785 34.44L220.78 34.1402C220.618 29.289 216.639 25.44 211.785 25.44V34.44ZM211.891 37.62L202.896 37.9198C203.058 42.771 207.037 46.62 211.891 46.62V37.62ZM211.997 37.62V46.62C214.471 46.62 216.835 45.6018 218.535 43.8048L211.997 37.62ZM215.919 34.811L219.335 43.1375C219.395 43.1128 219.455 43.0873 219.515 43.0613L215.919 34.811ZM227.791 36.56L234.682 30.7713L234.682 30.7713L227.791 36.56ZM230.017 62V71C234.988 71 239.017 66.9706 239.017 62H230.017ZM219.629 62H210.629C210.629 66.9706 214.658 71 219.629 71V62ZM218.887 43.503L211.235 48.2402C211.324 48.3841 211.417 48.5255 211.514 48.6642L218.887 43.503ZM214.329 42.867L210.304 34.8171L210.304 34.8172L214.329 42.867ZM212.845 44.192L220.333 49.1843C220.382 49.1109 220.43 49.0368 220.477 48.962L212.845 44.192ZM212.315 62V71C217.286 71 221.315 66.9706 221.315 62H212.315ZM210.927 62V34.44H192.927V62H210.927ZM201.927 43.44H211.785V25.44H201.927V43.44ZM202.79 34.7398L202.896 37.9198L220.886 37.3202L220.78 34.1402L202.79 34.7398ZM211.891 46.62H211.997V28.62H211.891V46.62ZM218.535 43.8048C219.074 43.2353 219.357 43.1284 219.335 43.1375L212.503 26.4845C209.725 27.6243 207.393 29.39 205.459 31.4352L218.535 43.8048ZM219.515 43.0613C219.536 43.0521 219.874 42.91 220.742 42.91V24.91C217.935 24.91 215.058 25.3686 212.323 26.5607L219.515 43.0613ZM220.742 42.91C221.138 42.91 221.411 42.9375 221.58 42.9643C221.748 42.991 221.794 43.0137 221.749 42.9969C221.699 42.9783 221.57 42.9226 221.398 42.804C221.223 42.6832 221.05 42.5282 220.9 42.3487L234.682 30.7713C230.891 26.258 225.522 24.91 220.742 24.91V42.91ZM220.9 42.3487C220.589 41.9785 220.635 41.8317 220.755 42.2901C220.878 42.7588 221.017 43.6311 221.017 45.04H239.017C239.017 40.3673 238.191 34.9488 234.682 30.7713L220.9 42.3487ZM221.017 45.04V62H239.017V45.04H221.017ZM230.017 53H219.629V71H230.017V53ZM228.629 62V47.16H210.629V62H228.629ZM228.629 47.16C228.629 45.1237 228.445 41.4627 226.26 38.3418L211.514 48.6642C211.147 48.1399 210.934 47.6767 210.814 47.365C210.693 47.0524 210.642 46.8285 210.623 46.7369C210.591 46.5788 210.629 46.6807 210.629 47.16H228.629ZM226.539 38.7658C223.955 34.5917 219.703 33.39 216.502 33.39V51.39C216.118 51.39 215.227 51.3308 214.14 50.8239C212.959 50.2727 211.932 49.3672 211.235 48.2402L226.539 38.7658ZM216.502 33.39C214.493 33.39 212.358 33.7904 210.304 34.8171L218.354 50.9168C217.572 51.3076 216.886 51.39 216.502 51.39V33.39ZM210.304 34.8172C208.29 35.8244 206.503 37.358 205.213 39.422L220.477 48.962C219.894 49.8953 219.096 50.5456 218.354 50.9168L210.304 34.8172ZM205.357 39.1997C203.863 41.4394 203.315 43.8812 203.315 46.1H221.315C221.315 46.8348 221.12 48.0046 220.333 49.1843L205.357 39.1997ZM203.315 46.1V62H221.315V46.1H203.315ZM212.315 53H201.927V71H212.315V53ZM248.618 73.024L250.355 64.1933L250.355 64.1932L248.618 73.024ZM243.371 71.328L234.461 70.0552C233.923 73.822 235.812 77.5201 239.179 79.2923L243.371 71.328ZM244.431 63.908L248.455 55.8582C245.868 54.5644 242.816 54.5933 240.254 55.936C237.691 57.2786 235.93 59.7713 235.521 62.6352L244.431 63.908ZM249.201 65.551L251.383 56.8197C251.33 56.8065 251.277 56.7937 251.224 56.7815L249.201 65.551ZM259.43 64.438L252.582 58.5975C252.548 58.6369 252.515 58.6766 252.482 58.7166L259.43 64.438ZM260.967 57.442H269.967C269.967 52.4714 265.937 48.442 260.967 48.442V57.442ZM260.861 57.442V48.442C258.516 48.442 256.265 49.3567 254.584 50.9915L260.861 57.442ZM257.045 60.145L253.499 51.8727C253.47 51.8852 253.441 51.8979 253.412 51.9107L257.045 60.145ZM244.537 57.495L237.571 63.1941C237.585 63.2115 237.599 63.2289 237.614 63.2462L244.537 57.495ZM244.537 37.408L251.459 43.1592C251.474 43.1419 251.488 43.1245 251.502 43.1071L244.537 37.408ZM257.257 34.758L253.764 43.0527C253.851 43.0892 253.938 43.1243 254.026 43.1581L257.257 34.758ZM261.285 37.408L255.1 43.9462C256.771 45.5271 258.984 46.408 261.285 46.408V37.408ZM261.391 37.408V46.408C266.236 46.408 270.212 42.5717 270.385 37.7292L261.391 37.408ZM261.497 34.44V25.44C256.651 25.44 252.675 29.2763 252.502 34.1188L261.497 34.44ZM271.355 34.44H280.355C280.355 29.4694 276.325 25.44 271.355 25.44V34.44ZM267.327 69.791L261.137 63.2574C261.107 63.2853 261.078 63.3134 261.049 63.3416L267.327 69.791ZM258.794 52.513L254.941 44.3794C254.883 44.4067 254.826 44.4346 254.769 44.4632L258.794 52.513ZM260.384 43.662L252.967 48.7608C253.019 48.8361 253.072 48.9106 253.126 48.9843L260.384 43.662ZM258.794 42.337L254.769 50.3868C254.826 50.4154 254.883 50.4433 254.941 50.4706L258.794 42.337ZM253.07 43.344L259.921 49.1802C259.956 49.1393 259.99 49.0981 260.024 49.0567L253.07 43.344ZM253.07 51.559L246.115 57.2717C246.149 57.3131 246.184 57.3543 246.218 57.3952L253.07 51.559ZM255.349 64.66C253.564 64.66 251.904 64.498 250.355 64.1933L246.88 81.8548C249.642 82.398 252.469 82.66 255.349 82.66V64.66ZM250.355 64.1932C248.708 63.8693 247.872 63.527 247.562 63.3637L239.179 79.2923C241.554 80.5423 244.216 81.3307 246.88 81.8548L250.355 64.1932ZM252.28 72.6008L253.34 65.1808L235.521 62.6352L234.461 70.0552L252.28 72.6008ZM240.406 71.9578C242.522 73.0162 244.814 73.7753 247.177 74.3205L251.224 56.7815C249.912 56.4787 249.024 56.1425 248.455 55.8582L240.406 71.9578ZM247.018 74.2823C249.438 74.8872 251.892 75.24 254.342 75.24V57.24C253.612 57.24 252.638 57.1334 251.383 56.8197L247.018 74.2823ZM254.342 75.24C257.959 75.24 262.921 74.3553 266.377 70.1594L252.482 58.7166C253.18 57.8694 253.963 57.4646 254.411 57.3059C254.791 57.1714 254.841 57.24 254.342 57.24V75.24ZM266.277 70.2785C269.455 66.5525 269.967 61.7455 269.967 58.29H251.967C251.967 58.7538 251.946 59.1118 251.918 59.3768C251.891 59.6438 251.86 59.7823 251.851 59.8172C251.842 59.8532 251.866 59.7415 251.966 59.5309C252.067 59.3162 252.257 58.9787 252.582 58.5975L266.277 70.2785ZM269.967 58.29V57.442H251.967V58.29H269.967ZM260.967 48.442H260.861V66.442H260.967V48.442ZM254.584 50.9915C253.805 51.7502 253.431 51.9018 253.499 51.8727L260.59 68.4173C263.131 67.3282 265.302 65.6778 267.137 63.8925L254.584 50.9915ZM253.412 51.9107C253.615 51.821 253.481 51.94 252.752 51.94V69.94C255.343 69.94 258.071 69.529 260.677 68.3793L253.412 51.9107ZM252.752 51.94C251.926 51.94 251.57 51.8077 251.502 51.779C251.467 51.7643 251.468 51.7608 251.484 51.7726C251.499 51.7843 251.491 51.7825 251.459 51.7438L237.614 63.2462C241.569 68.0073 247.084 69.94 252.752 69.94V51.94ZM251.502 51.7959C251.392 51.6617 250.675 50.6461 250.675 47.425H232.675C232.675 52.9665 233.865 58.6643 237.571 63.1941L251.502 51.7959ZM250.675 47.425C250.675 44.1911 251.398 43.2335 251.459 43.1592L237.614 31.6568C233.86 36.1759 232.675 41.8962 232.675 47.425H250.675ZM251.502 43.1071C251.54 43.0613 251.551 43.0565 251.536 43.0678C251.521 43.0793 251.518 43.0776 251.547 43.0651C251.603 43.0414 251.943 42.91 252.752 42.91V24.91C247.037 24.91 241.51 26.8942 237.571 31.7089L251.502 43.1071ZM252.752 42.91C253.38 42.91 253.671 43.0135 253.764 43.0527L260.749 26.4633C258.157 25.3718 255.445 24.91 252.752 24.91V42.91ZM254.026 43.1581C254.095 43.1849 254.464 43.345 255.1 43.9462L267.469 30.8698C265.49 28.9976 263.174 27.3911 260.487 26.3579L254.026 43.1581ZM261.285 46.408H261.391V28.408H261.285V46.408ZM270.385 37.7292L270.491 34.7612L252.502 34.1188L252.396 37.0868L270.385 37.7292ZM261.497 43.44H271.355V25.44H261.497V43.44ZM262.355 34.44V58.29H280.355V34.44H262.355ZM262.355 58.29C262.355 61.9199 261.424 62.9853 261.137 63.2574L273.516 76.3246C278.6 71.5087 280.355 64.9068 280.355 58.29H262.355ZM261.049 63.3416C260.699 63.682 259.376 64.66 255.349 64.66V82.66C261.991 82.66 268.654 81.0587 273.604 76.2404L261.049 63.3416ZM256.515 61.99C258.464 61.99 260.667 61.6387 262.818 60.5628L254.769 44.4632C255.648 44.0233 256.332 43.99 256.515 43.99V61.99ZM262.646 60.6466C264.63 59.7071 266.438 58.2677 267.8 56.2868L252.967 46.0892C253.552 45.2389 254.3 44.6829 254.941 44.3794L262.646 60.6466ZM267.8 56.2868C269.253 54.1739 269.967 51.7491 269.967 49.28H251.967C251.967 48.2242 252.292 47.0714 252.967 46.0892L267.8 56.2868ZM269.967 49.28V45.57H251.967V49.28H269.967ZM269.967 45.57C269.967 43.1717 269.305 40.6091 267.641 38.3397L253.126 48.9843C252.239 47.7748 251.967 46.4843 251.967 45.57H269.967ZM267.8 38.5632C266.438 36.5823 264.63 35.1429 262.646 34.2034L254.941 50.4706C254.3 50.1671 253.552 49.6111 252.967 48.7608L267.8 38.5632ZM262.818 34.2872C260.667 33.2113 258.464 32.86 256.515 32.86V50.86C256.332 50.86 255.648 50.8267 254.769 50.3868L262.818 34.2872ZM256.515 32.86C252.816 32.86 248.92 34.217 246.115 37.6313L260.024 49.0567C259.542 49.644 258.878 50.162 258.101 50.4967C257.361 50.8156 256.772 50.86 256.515 50.86V32.86ZM246.218 37.5078C243.545 40.6466 242.851 44.3862 242.851 47.425H260.851C260.851 46.9305 260.969 47.9494 259.921 49.1802L246.218 37.5078ZM242.851 47.425C242.851 50.49 243.555 54.1551 246.115 57.2717L260.024 45.8463C260.959 46.9842 260.851 47.8934 260.851 47.425H242.851ZM246.218 57.3952C249.06 60.7315 252.93 61.99 256.515 61.99V43.99C256.733 43.99 257.283 44.0258 257.993 44.3208C258.742 44.6319 259.413 45.1268 259.921 45.7228L246.218 57.3952Z" fill="#E49163" mask="url(#path-1-outside-1_879_128)"/>
</svg>
